<svg width="1280" height="562" viewBox="0 0 1280 562" fill="none" xmlns="http://www.w3.org/2000/svg">
<g opacity="0.5">
<path d="M243.754 550.76V456.719H0V382.535L175.503 11.24H265.129L89.6264 382.535H243.754V236.415H323.255V382.535H376.881V456.719H323.255V550.76H243.754Z" fill="#F0F2F2"/>
<path d="M640.164 562C603.414 562 570.913 554.007 542.663 538.021C514.412 521.786 492.162 499.556 475.912 471.331C459.911 443.106 451.911 410.635 451.911 373.917V188.083C451.911 151.365 459.911 118.894 475.912 90.6693C492.162 62.4444 514.412 40.3391 542.663 24.3533C570.913 8.11777 603.414 0 640.164 0C676.915 0 709.415 8.11777 737.666 24.3533C765.916 40.3391 788.041 62.4444 804.042 90.6693C820.292 118.894 828.417 151.365 828.417 188.083V373.917C828.417 410.635 820.292 443.106 804.042 471.331C788.041 499.556 765.916 521.786 737.666 538.021C709.415 554.007 676.915 562 640.164 562ZM640.164 487.067C660.164 487.067 678.29 482.321 694.54 472.829C711.04 463.088 724.165 450.1 733.916 433.864C743.666 417.379 748.541 399.02 748.541 378.788V182.463C748.541 162.48 743.666 144.372 733.916 128.136C724.165 111.651 711.04 98.6622 694.54 89.1706C678.29 79.4293 660.164 74.5587 640.164 74.5587C620.164 74.5587 601.914 79.4293 585.413 89.1706C569.163 98.6622 556.163 111.651 546.413 128.136C536.662 144.372 531.787 162.48 531.787 182.463V378.788C531.787 399.02 536.662 417.379 546.413 433.864C556.163 450.1 569.163 463.088 585.413 472.829C601.914 482.321 620.164 487.067 640.164 487.067Z" fill="#F0F2F2"/>
<path d="M1146.87 550.76V456.719H903.119V382.535L1078.62 11.24H1168.25L992.746 382.535H1146.87V236.415H1226.37V382.535H1280V456.719H1226.37V550.76H1146.87Z" fill="#F0F2F2"/>
</g>
</svg>
