<svg width="24" height="24" viewBox="0 0 24 24" fill="none" xmlns="http://www.w3.org/2000/svg">
<g clip-path="url(#clip0_248_55471)">
<path d="M20.8766 16.9701L18.5975 14.2536C19.4911 12.6608 19.7778 10.7984 19.4046 9.01063C19.0314 7.22286 18.0235 5.63066 16.5673 4.52843C15.1112 3.42619 13.3051 2.88846 11.4832 3.01466C9.66125 3.14086 7.94661 3.92245 6.65629 5.21492C5.49237 6.37996 4.74023 7.89285 4.51398 9.52406C4.28773 11.1553 4.59972 12.8158 5.40262 14.2536L3.12344 16.9701C3.06409 17.0409 3.02436 17.126 3.00823 17.2169C2.9921 17.3079 3.00013 17.4014 3.03153 17.4883C3.06292 17.5751 3.11658 17.6522 3.18713 17.7118C3.25768 17.7714 3.34264 17.8115 3.43352 17.8279L5.9261 18.279L6.8029 20.6552C6.83485 20.7419 6.88902 20.8187 6.96 20.8779C7.03097 20.9371 7.11626 20.9765 7.2073 20.9924C7.29834 21.0082 7.39195 20.9999 7.47874 20.9682C7.56554 20.9364 7.64247 20.8825 7.70184 20.8116L10.1522 17.8912C11.3657 18.1927 12.6344 18.1927 13.8479 17.8912L16.2982 20.8116C16.3576 20.8825 16.4345 20.9364 16.5213 20.9682C16.6081 20.9999 16.7017 21.0082 16.7928 20.9924C16.8838 20.9765 16.9691 20.9371 17.0401 20.8779C17.1111 20.8187 17.1652 20.7419 17.1972 20.6552L18.074 18.279L20.5666 17.8279C20.6574 17.8115 20.7424 17.7714 20.813 17.7118C20.8835 17.6522 20.9372 17.5751 20.9686 17.4883C21 17.4014 21.008 17.3079 20.9919 17.2169C20.9757 17.126 20.936 17.0409 20.8766 16.9701ZM7.4779 19.4377L6.80993 17.6311C6.77826 17.5451 6.72475 17.4688 6.65466 17.4098C6.58457 17.3509 6.50031 17.3111 6.4102 17.2946L4.51528 16.9518L6.01012 15.1705C6.20986 15.4278 6.42568 15.6723 6.65629 15.9024C7.34959 16.5979 8.1719 17.1514 9.07715 17.5319L7.4779 19.4377ZM5.49614 10.5587C5.49614 6.97273 8.41411 4.05477 12 4.05477C15.586 4.05477 18.504 6.97273 18.504 10.5587C18.504 14.1446 15.586 17.0626 12 17.0626C8.41411 17.0626 5.49614 14.1446 5.49614 10.5587ZM17.5899 17.2946C17.4995 17.3109 17.415 17.3505 17.3446 17.4095C17.2743 17.4685 17.2205 17.5449 17.1888 17.6311L16.5208 19.4377L14.9226 17.533C15.828 17.1521 16.6505 16.5983 17.3438 15.9024C17.5741 15.6719 17.7895 15.4271 17.9889 15.1694L19.4838 16.9508L17.5899 17.2946Z" fill="#808588"/>
<path d="M13.8618 8.98016L11.5173 11.326L10.1383 9.94612C10.0364 9.84423 9.89414 9.78331 9.74284 9.77675C9.59154 9.7702 9.44358 9.81855 9.33149 9.91116C9.21941 10.0038 9.15239 10.1331 9.14518 10.2706C9.13797 10.4082 9.19115 10.5427 9.29304 10.6445L11.0947 12.4477C11.1482 12.5013 11.2135 12.5441 11.2863 12.5734C11.3591 12.6027 11.4378 12.6179 11.5175 12.6179C11.5971 12.6179 11.6758 12.6027 11.7487 12.5734C11.8215 12.5441 11.8867 12.5013 11.9403 12.4477L14.707 9.67893C14.7575 9.62848 14.7965 9.56949 14.8219 9.50533C14.8472 9.44117 14.8585 9.3731 14.8549 9.305C14.8513 9.2369 14.833 9.1701 14.8011 9.10843C14.7691 9.04675 14.7241 8.99141 14.6686 8.94555C14.6131 8.89969 14.5482 8.86421 14.4776 8.84115C14.407 8.81809 14.3321 8.80789 14.2572 8.81114C14.1823 8.81438 14.1088 8.83101 14.041 8.86007C13.9731 8.88913 13.9123 8.93005 13.8618 8.9805V8.98016Z" fill="#808588"/>
</g>
<defs>
<clipPath id="clip0_248_55471">
<rect width="18" height="18" fill="white" transform="translate(3 3)"/>
</clipPath>
</defs>
</svg>
