<svg width="20" height="20" viewBox="0 0 20 20" fill="none" xmlns="http://www.w3.org/2000/svg">
<path d="M17 10.5C17.2761 10.5 17.5 10.7239 17.5 11C17.5 11.2761 17.2761 11.5 17 11.5V10.5ZM2.64645 11.3536C2.45118 11.1583 2.45118 10.8417 2.64645 10.6464L5.82843 7.46447C6.02369 7.2692 6.34027 7.2692 6.53553 7.46447C6.7308 7.65973 6.7308 7.97631 6.53553 8.17157L3.70711 11L6.53553 13.8284C6.7308 14.0237 6.7308 14.3403 6.53553 14.5355C6.34027 14.7308 6.02369 14.7308 5.82843 14.5355L2.64645 11.3536ZM17 11.5H3V10.5H17V11.5Z" fill="#33383A"/>
</svg>
