<svg width="20" height="20" viewBox="0 0 20 20" fill="none" xmlns="http://www.w3.org/2000/svg">
<path d="M3.33203 5.83398H16.6654" stroke="#808588" stroke-linecap="round" stroke-linejoin="round"/>
<path d="M8.33203 9.16602V14.166" stroke="#808588" stroke-linecap="round" stroke-linejoin="round"/>
<path d="M11.668 9.16602V14.166" stroke="#808588" stroke-linecap="round" stroke-linejoin="round"/>
<path d="M4.16797 5.83398L5.0013 15.834C5.0013 16.276 5.1769 16.6999 5.48946 17.0125C5.80202 17.3251 6.22594 17.5007 6.66797 17.5007H13.3346C13.7767 17.5007 14.2006 17.3251 14.5131 17.0125C14.8257 16.6999 15.0013 16.276 15.0013 15.834L15.8346 5.83398" stroke="#808588" stroke-linecap="round" stroke-linejoin="round"/>
<path d="M7.5 5.83333V3.33333C7.5 3.11232 7.5878 2.90036 7.74408 2.74408C7.90036 2.5878 8.11232 2.5 8.33333 2.5H11.6667C11.8877 2.5 12.0996 2.5878 12.2559 2.74408C12.4122 2.90036 12.5 3.11232 12.5 3.33333V5.83333" stroke="#808588" stroke-linecap="round" stroke-linejoin="round"/>
</svg>
