<svg width="32" height="30" viewBox="0 0 32 30" fill="none" xmlns="http://www.w3.org/2000/svg">
<g clip-path="url(#clip0_2495_60576)">
<path d="M14.6594 3H11.9912V5.66252H14.6594V3Z" fill="#D9DEE0"/>
<path d="M19.9958 3H17.3276V5.66252H19.9958V3Z" fill="#D9DEE0"/>
<path d="M25.3319 3H22.7091V5.66252H25.3319V24.3375H6.66815V5.66252H9.32296V3H6.66815H4.01067H4V24.3375V27H6.66815H25.3319H28V24.3375V5.66252V3H25.3319Z" fill="#D9DEE0"/>
<path fill-rule="evenodd" clip-rule="evenodd" d="M9.34131 21.643L14.6883 8.33569H17.3564L22.6954 21.643H20.0326L18.9561 19H13.0925L12.0175 21.643H9.34131ZM14.1772 16.3333H17.87L16.0224 11.797L14.1772 16.3333Z" fill="#D9DEE0"/>
</g>
<defs>
<clipPath id="clip0_2495_60576">
<rect width="24" height="24" fill="white" transform="translate(4 3)"/>
</clipPath>
</defs>
</svg>
