<svg width="20" height="20" viewBox="0 0 20 20" fill="none" xmlns="http://www.w3.org/2000/svg">
<path d="M5.95092 18C5.19481 18.0001 4.43894 17.7022 3.86333 17.1064C2.71224 15.9148 2.71221 13.9761 3.86333 12.7846L11.6606 4.71366C12.4104 3.93747 13.6305 3.93747 14.3803 4.71366C15.1301 5.48984 15.1301 6.75275 14.3803 7.52887L7.93457 14.2008C7.75772 14.3839 7.47094 14.3839 7.29409 14.2008C7.11723 14.0178 7.11723 13.7209 7.29409 13.5379L13.7398 6.86591C13.9319 6.667 14.0378 6.40256 14.0378 6.12128C14.0378 5.84 13.9319 5.57556 13.7398 5.37666C13.5476 5.17775 13.2921 5.06819 13.0204 5.06819C12.7487 5.06819 12.4932 5.17772 12.301 5.37663L4.50382 13.4476C3.70589 14.2735 3.70589 15.6174 4.50382 16.4434C5.30174 17.2693 6.6001 17.2694 7.39806 16.4434L15.1953 8.3725C16.3944 7.13119 16.3944 5.11141 15.1953 3.87009C14.6143 3.26878 13.842 2.93759 13.0204 2.93759C12.1988 2.93759 11.4264 3.26878 10.8455 3.87009L4.39984 10.542C4.22299 10.7251 3.93621 10.7251 3.75936 10.542C3.5825 10.359 3.5825 10.0621 3.75936 9.87906L10.2051 3.20709C10.957 2.42869 11.9569 2 13.0204 2C14.0839 2 15.0837 2.42869 15.8357 3.20709C17.3881 4.81397 17.3881 7.42853 15.8357 9.03544L8.03855 17.1064C7.46303 17.7021 6.70686 17.9999 5.95092 18Z" fill="#808588"/>
</svg>
