<svg width="20" height="21" viewBox="0 0 20 21" fill="none" xmlns="http://www.w3.org/2000/svg">
<path d="M12.796 5.46877C12.5644 5.46726 12.3373 5.54901 12.162 5.72312L11.7718 6.1228L14.3446 8.69047L14.7348 8.29079C15.0869 7.94106 15.0899 7.37333 14.7348 7.01906L13.4423 5.73523C13.264 5.55809 13.0277 5.47028 12.796 5.46877ZM11.3328 6.47404L10.7232 7.0554L13.4057 9.71997L14.0276 9.15072L11.3328 6.47404ZM10.333 7.47931L6.11404 11.6336C6.01649 11.6836 5.94638 11.7714 5.91895 11.8758L5.01663 14.9159C4.97548 15.0491 5.01206 15.196 5.11113 15.2944C5.21021 15.3928 5.35805 15.4291 5.49218 15.3882L8.55273 14.492C8.69447 14.4708 8.81184 14.3724 8.85756 14.2376L13.0155 10.1439L11.9791 9.11438H11.9669L11.2719 8.41191L10.333 7.47931ZM6.57739 12.324L6.78468 12.5299L7.79673 12.6147L7.84551 13.5957L8.10157 13.85L6.45546 14.3224L6.08966 13.9591L6.57739 12.324Z" fill="#808588"/>
</svg>
