<svg width="416" height="404" viewBox="0 0 416 404" fill="none" xmlns="http://www.w3.org/2000/svg">
<g clip-path="url(#clip0_2517_63471)">
<rect width="416" height="404" fill="white"/>
<path d="M143.444 119.019V100.578H125V119.019H143.444Z" fill="#D9DEE0"/>
<path d="M291.001 119.019V100.578H272.557V119.019H291.001Z" fill="#D9DEE0"/>
<path d="M217.222 119.019V100.578H161.889V119.019H217.222Z" fill="#D9DEE0"/>
<path d="M180.333 192.783V174.342H125V192.783H180.333Z" fill="#D9DEE0"/>
<path d="M291.001 266.546V248.105H235.668V266.546H291.001Z" fill="#D9DEE0"/>
<path d="M143.444 155.901V137.46H125V155.901H143.444Z" fill="#D9DEE0"/>
<path d="M143.444 229.665V211.224H125V229.665H143.444Z" fill="#D9DEE0"/>
<path d="M143.444 266.546V248.105H125V266.546H143.444Z" fill="#D9DEE0"/>
<path d="M143.444 303.428V284.987H125V303.428H143.444Z" fill="#D9DEE0"/>
<path d="M217.222 155.901V137.46H198.777V155.901H217.222Z" fill="#D9DEE0"/>
<path d="M291.001 229.665V211.224H272.557V229.665H291.001Z" fill="#D9DEE0"/>
<path d="M291.001 303.428V284.987H272.557V303.428H291.001Z" fill="#D9DEE0"/>
<path d="M180.333 155.901V137.46H161.889V155.901H180.333Z" fill="#D9DEE0"/>
<path d="M180.333 229.665V211.224H161.889V229.665H180.333Z" fill="#D9DEE0"/>
<path d="M254.112 229.665V211.224H235.668V229.665H254.112Z" fill="#D9DEE0"/>
<path d="M254.112 303.428V284.987H235.668V303.428H254.112Z" fill="#D9DEE0"/>
<path d="M217.222 266.546V248.105H198.777V266.546H217.222Z" fill="#D9DEE0"/>
<path d="M217.222 303.428V284.987H198.777V303.428H217.222Z" fill="#D9DEE0"/>
<path d="M291.001 155.901V137.46H272.557V155.901H291.001Z" fill="#D9DEE0"/>
<path d="M291.001 192.783V174.342H272.557V192.783H291.001Z" fill="#D9DEE0"/>
<path d="M254.112 119.019V100.578H235.668V119.019H254.112Z" fill="#D9DEE0"/>
<path d="M254.112 192.783V137.46H235.668V192.783H254.112Z" fill="#D9DEE0"/>
<path d="M217.222 229.665V174.342H198.777V229.665H217.222Z" fill="#D9DEE0"/>
<path d="M180.333 303.428V248.105H161.889V303.428H180.333Z" fill="#D9DEE0"/>
<path d="M254.112 45.2554V26.8145H235.668V45.2554H254.112Z" fill="#D9DEE0"/>
<path d="M180.333 8.37354V-10.0674H161.889V8.37354H180.333Z" fill="#D9DEE0"/>
<path d="M254.111 8.37354V-10.0674H198.777V8.37354H254.111Z" fill="#D9DEE0"/>
<path d="M254.112 82.1372V63.6963H235.668V82.1372H254.112Z" fill="#D9DEE0"/>
<path d="M291.001 8.37354V-10.0674H272.557V8.37354H291.001Z" fill="#D9DEE0"/>
<path d="M180.333 45.2554V26.8145H161.889V45.2554H180.333Z" fill="#D9DEE0"/>
<path d="M143.444 82.1372V63.6963H125V82.1372H143.444Z" fill="#D9DEE0"/>
<path d="M180.333 82.1372V63.6963H161.889V82.1372H180.333Z" fill="#D9DEE0"/>
<path d="M143.444 45.2554V-10.0674H125V45.2554H143.444Z" fill="#D9DEE0"/>
<path d="M291.001 82.1372V26.8145H272.557V82.1372H291.001Z" fill="#D9DEE0"/>
<path d="M217.222 82.1372V26.8145H198.777V82.1372H217.222Z" fill="#D9DEE0"/>
<path d="M180.333 340.31V321.869H161.889V340.31H180.333Z" fill="#D9DEE0"/>
<path d="M217.222 340.31V321.869H198.777V340.31H217.222Z" fill="#D9DEE0"/>
<path d="M180.333 414.074V395.633H161.889V414.074H180.333Z" fill="#D9DEE0"/>
<path d="M143.444 414.074V395.633H125V414.074H143.444Z" fill="#D9DEE0"/>
<path d="M254.111 414.074V395.633H198.777V414.074H254.111Z" fill="#D9DEE0"/>
<path d="M180.333 377.192V358.751H161.889V377.192H180.333Z" fill="#D9DEE0"/>
<path d="M217.222 377.192V358.751H198.777V377.192H217.222Z" fill="#D9DEE0"/>
<path d="M291.001 377.192V358.751H272.557V377.192H291.001Z" fill="#D9DEE0"/>
<path d="M291.001 414.074V395.633H272.557V414.074H291.001Z" fill="#D9DEE0"/>
<path d="M291.001 340.31V321.869H272.557V340.31H291.001Z" fill="#D9DEE0"/>
<path d="M143.444 377.192V321.869H125V377.192H143.444Z" fill="#D9DEE0"/>
<path d="M254.112 377.192V321.869H235.668V377.192H254.112Z" fill="#D9DEE0"/>
</g>
<defs>
<clipPath id="clip0_2517_63471">
<rect width="416" height="404" fill="white"/>
</clipPath>
</defs>
</svg>
