<svg width="20" height="20" viewBox="0 0 20 20" fill="none" xmlns="http://www.w3.org/2000/svg">
<path d="M13.75 18.3337H6.25C5.58696 18.3337 4.95107 18.0703 4.48223 17.6014C4.01339 17.1326 3.75 16.4967 3.75 15.8337V4.16699C3.75 3.50395 4.01339 2.86807 4.48223 2.39923C4.95107 1.93038 5.58696 1.66699 6.25 1.66699H11.7417C11.9603 1.66791 12.1698 1.75471 12.325 1.90866L16.0083 5.59199C16.1623 5.74721 16.2491 5.95671 16.25 6.17533V15.8337C16.25 16.4967 15.9866 17.1326 15.5178 17.6014C15.0489 18.0703 14.413 18.3337 13.75 18.3337Z" fill="#808588"/>
<path d="M15.7266 6.42403H12.7266C12.395 6.42403 12.0771 6.29233 11.8427 6.05791C11.6083 5.82349 11.4766 5.50555 11.4766 5.17403V2.17403C11.4762 2.08311 11.5029 1.99414 11.5532 1.91843C11.6036 1.84273 11.6753 1.7837 11.7593 1.74886C11.8432 1.71402 11.9357 1.70494 12.0248 1.72277C12.114 1.74061 12.2149 1.78711 12.2865 1.85872L16.0528 5.63151C16.1276 5.70964 16.16 5.78663 16.1778 5.87578C16.1957 5.96492 16.1866 6.05736 16.1517 6.14134C16.1169 6.22531 16.0579 6.29703 15.9822 6.34737C15.9065 6.3977 15.8175 6.42439 15.7266 6.42403Z" fill="#D9DEE0"/>
<path d="M6.57342 15.9417C6.51567 15.9501 6.45675 15.9449 6.40136 15.9265C6.34597 15.9081 6.29564 15.877 6.25437 15.8358C6.2131 15.7945 6.18203 15.7442 6.16364 15.6888C6.14525 15.6334 6.14004 15.5745 6.14842 15.5167V13.0751C6.14033 13.0181 6.14545 12.96 6.1634 12.9053C6.18135 12.8507 6.21163 12.8009 6.25192 12.7598C6.2922 12.7187 6.3414 12.6874 6.39571 12.6684C6.45001 12.6494 6.50797 12.6431 6.56509 12.6501C6.61635 12.6443 6.66824 12.6492 6.71753 12.6643C6.76682 12.6795 6.81244 12.7047 6.85155 12.7384C6.89065 12.772 6.9224 12.8133 6.9448 12.8598C6.96721 12.9063 6.97979 12.9568 6.98176 13.0084C7.04895 12.8914 7.15088 12.7982 7.27342 12.7417C7.40461 12.6737 7.55066 12.6393 7.69842 12.6417C7.88697 12.6391 8.07222 12.6912 8.23176 12.7917C8.38897 12.8967 8.51321 13.044 8.59009 13.2167C8.67834 13.4235 8.72384 13.646 8.72384 13.8709C8.72384 14.0957 8.67834 14.3183 8.59009 14.5251C8.47647 14.7566 8.27779 14.9353 8.03554 15.0238C7.7933 15.1123 7.52622 15.1038 7.29009 15.0001C7.17193 14.9448 7.07108 14.8584 6.99842 14.7501V15.5084C7.00324 15.5658 6.9961 15.6236 6.97745 15.6781C6.9588 15.7326 6.92906 15.7826 6.89009 15.8251C6.84779 15.8647 6.79797 15.8954 6.74358 15.9155C6.68919 15.9355 6.63133 15.9444 6.57342 15.9417ZM7.40676 14.4751C7.46746 14.4757 7.52752 14.4626 7.58239 14.4366C7.63725 14.4106 7.68548 14.3724 7.72342 14.3251C7.81632 14.1913 7.85775 14.0286 7.84009 13.8667C7.857 13.7049 7.81563 13.5424 7.72342 13.4084C7.68392 13.3634 7.63518 13.3275 7.58054 13.303C7.52589 13.2786 7.46662 13.2662 7.40676 13.2667C7.34558 13.2655 7.28487 13.2776 7.22878 13.302C7.17269 13.3265 7.12254 13.3628 7.08176 13.4084C6.99389 13.5443 6.95292 13.7053 6.96509 13.8667C6.95165 14.0282 6.99273 14.1896 7.08176 14.3251C7.12303 14.3772 7.17665 14.4182 7.23776 14.4444C7.29887 14.4706 7.36555 14.4811 7.43176 14.4751H7.40676Z" fill="white"/>
<path d="M10.1387 15.0916C9.95339 15.0986 9.77034 15.0492 9.61369 14.9499C9.45401 14.8455 9.32695 14.6982 9.24703 14.5249C9.15878 14.3181 9.11328 14.0956 9.11328 13.8708C9.11328 13.6459 9.15878 13.4234 9.24703 13.2166C9.32695 13.0433 9.45401 12.896 9.61369 12.7916C9.76962 12.6899 9.95259 12.6376 10.1387 12.6416C10.2837 12.6402 10.4268 12.6746 10.5554 12.7416C10.6705 12.7938 10.7708 12.874 10.847 12.9749V12.0666C10.8386 12.0088 10.8438 11.9499 10.8622 11.8945C10.8806 11.8391 10.9117 11.7888 10.953 11.7475C10.9942 11.7063 11.0446 11.6752 11.1 11.6568C11.1554 11.6384 11.2143 11.6332 11.272 11.6416C11.3281 11.6374 11.3844 11.6449 11.4375 11.6636C11.4906 11.6822 11.5392 11.7116 11.5804 11.7499C11.6193 11.7923 11.6491 11.8424 11.6677 11.8969C11.6864 11.9514 11.6935 12.0092 11.6887 12.0666V14.6583C11.6975 14.7688 11.6621 14.8783 11.5902 14.9626C11.5183 15.047 11.4159 15.0994 11.3054 15.1083C11.2506 15.1126 11.1956 15.1062 11.1434 15.0893C11.0911 15.0724 11.0428 15.0454 11.001 15.0098C10.9166 14.9379 10.8642 14.8354 10.8554 14.7249C10.7912 14.8413 10.6921 14.9346 10.572 14.9916C10.4375 15.0587 10.289 15.093 10.1387 15.0916ZM10.4137 14.4749C10.4744 14.4756 10.5345 14.4624 10.5893 14.4364C10.6442 14.4105 10.6924 14.3723 10.7304 14.3249C10.8269 14.1927 10.8714 14.0295 10.8554 13.8666C10.8699 13.7038 10.8255 13.5412 10.7304 13.4083C10.6909 13.3633 10.6421 13.3273 10.5875 13.3029C10.5328 13.2785 10.4736 13.2661 10.4137 13.2666C10.3537 13.2655 10.2943 13.2776 10.2396 13.3021C10.1848 13.3266 10.1362 13.3628 10.097 13.4083C10.0019 13.5412 9.95754 13.7038 9.97203 13.8666C9.956 14.0295 10.0005 14.1927 10.097 14.3249C10.1341 14.3733 10.1821 14.4121 10.2372 14.4382C10.2923 14.4643 10.3528 14.4769 10.4137 14.4749Z" fill="white"/>
<path d="M12.936 15.0835C12.8786 15.0901 12.8204 15.0837 12.7658 15.0647C12.7112 15.0457 12.6616 15.0146 12.6207 14.9737C12.5798 14.9329 12.5487 14.8833 12.5297 14.8287C12.5107 14.7741 12.5043 14.7159 12.511 14.6585V13.3335H12.386C12.3425 13.3403 12.298 13.3369 12.256 13.3236C12.214 13.3102 12.1757 13.2872 12.1442 13.2565C12.1127 13.2258 12.0887 13.1881 12.0743 13.1465C12.0598 13.1049 12.0553 13.0605 12.061 13.0168C12.061 12.8085 12.1693 12.7085 12.386 12.7085H12.5027C12.499 12.5748 12.5222 12.4418 12.5709 12.3173C12.6196 12.1927 12.6927 12.0792 12.786 11.9835C13.001 11.8009 13.2708 11.6953 13.5527 11.6835H13.6943C13.7719 11.6524 13.8584 11.6524 13.936 11.6835C13.9922 11.7155 14.0362 11.7653 14.061 11.8251C14.0733 11.8856 14.0733 11.948 14.061 12.0085C14.0514 12.0672 14.0254 12.1221 13.986 12.1668C13.949 12.2133 13.895 12.2432 13.836 12.2501H13.7693C13.6475 12.2447 13.5273 12.2798 13.4277 12.3501C13.3954 12.3845 13.3706 12.4252 13.3548 12.4697C13.339 12.5142 13.3326 12.5614 13.336 12.6085V12.6835H13.6027C13.8193 12.6835 13.9277 12.7835 13.9277 12.9918C13.9334 13.0355 13.9288 13.0799 13.9144 13.1215C13.8999 13.1631 13.876 13.2008 13.8445 13.2315C13.8129 13.2622 13.7746 13.2852 13.7326 13.2986C13.6907 13.3119 13.6462 13.3153 13.6027 13.3085H13.336V14.6418C13.3464 14.6985 13.3437 14.7568 13.3279 14.8122C13.3122 14.8677 13.2838 14.9188 13.2452 14.9615C13.2065 15.0042 13.1584 15.0374 13.1048 15.0586C13.0512 15.0797 12.9934 15.0883 12.936 15.0835Z" fill="white"/>
</svg>
