<svg width="20" height="20" viewBox="0 0 20 20" fill="none" xmlns="http://www.w3.org/2000/svg">
<g clip-path="url(#clip0_2061_59573)">
<path d="M10 6.66797V10.0013L11.6667 11.668" stroke="#808588" stroke-linecap="round" stroke-linejoin="round"/>
<path d="M2.54297 9.16575C2.72971 7.33246 3.58486 5.63209 4.94525 4.38905C6.30564 3.14601 8.07605 2.44732 9.9187 2.42627C11.7614 2.40522 13.5473 3.0633 14.9357 4.27494C16.3241 5.48658 17.2179 7.16698 17.4464 8.99552C17.675 10.8241 17.2224 12.6728 16.1749 14.1889C15.1275 15.705 13.5585 16.7824 11.7674 17.2156C9.97623 17.6488 8.08831 17.4074 6.4638 16.5375C4.83929 15.6675 3.5919 14.23 2.95964 12.4991M2.54297 16.6657V12.4991H6.70964" stroke="#808588" stroke-linecap="round" stroke-linejoin="round"/>
</g>
<defs>
<clipPath id="clip0_2061_59573">
<rect width="20" height="20" fill="white"/>
</clipPath>
</defs>
</svg>
