<svg width="20" height="20" viewBox="0 0 20 20" fill="none" xmlns="http://www.w3.org/2000/svg">
<path d="M5.48867 9.03171C5.40325 10.7257 3.56659 11.3812 3.56641 12.9265C3.56631 13.7316 4.07085 14.4661 4.93734 14.4661H15.0427C16.0928 14.4661 16.4322 13.7364 16.4322 12.9265C16.4322 11.3967 14.4355 10.7409 14.4355 9.03171C14.4355 8.12164 14.4355 7.58502 14.4355 6.71301C14.4355 4.44562 12.2589 2.97983 9.99153 2.97657C7.72025 2.9733 5.6556 4.44496 5.53455 6.71301C5.48867 7.57283 5.53455 8.12164 5.48867 9.03171Z" stroke="#808588"/>
<path d="M12.499 14.4661H7.49902C7.49902 14.4661 7.48403 17.0203 9.99153 17.0203C12.499 17.0203 12.499 14.4661 12.499 14.4661Z" stroke="#808588"/>
</svg>
