<svg width="18" height="12" viewBox="0 0 18 12" fill="none" xmlns="http://www.w3.org/2000/svg">
<g clip-path="url(#clip0_645_1409)">
<path d="M10.76 2.01318H6.32263V9.98726H10.76V2.01318Z" fill="#94989A"/>
<path d="M6.60456 5.99999C6.60386 5.23203 6.77788 4.47397 7.11346 3.78321C7.44904 3.09245 7.93737 2.48709 8.54149 2.01295C7.79337 1.42491 6.8949 1.05922 5.94878 0.957674C5.00265 0.856126 4.04704 1.02281 3.19117 1.4387C2.3353 1.85458 1.61371 2.50287 1.10886 3.30947C0.604022 4.11607 0.336304 5.04843 0.336304 5.99999C0.336304 6.95155 0.604022 7.88392 1.10886 8.69051C1.61371 9.49711 2.3353 10.1454 3.19117 10.5613C4.04704 10.9772 5.00265 11.1439 5.94878 11.0423C6.8949 10.9408 7.79337 10.5751 8.54149 9.98703C7.93737 9.51289 7.44905 8.90753 7.11347 8.21677C6.77789 7.52601 6.60386 6.76795 6.60456 5.99999Z" fill="#808588"/>
<path d="M16.7463 5.99999C16.7464 6.95154 16.4787 7.8839 15.9738 8.6905C15.469 9.4971 14.7475 10.1454 13.8916 10.5613C13.0358 10.9772 12.0802 11.1439 11.134 11.0423C10.1879 10.9408 9.28948 10.5751 8.54138 9.98703C9.14497 9.51242 9.63292 8.90696 9.96844 8.2163C10.304 7.52565 10.4783 6.76783 10.4783 5.99999C10.4783 5.23215 10.304 4.47433 9.96844 3.78368C9.63292 3.09303 9.14497 2.48757 8.54138 2.01295C9.28948 1.42491 10.1879 1.05922 11.134 0.957673C12.0802 0.856126 13.0358 1.02282 13.8916 1.43871C14.7475 1.85459 15.469 2.50288 15.9738 3.30948C16.4787 4.11608 16.7464 5.04844 16.7463 5.99999Z" fill="#D9DEE0"/>
<path d="M16.2627 9.14264V8.97938H16.3285V8.94612H16.1609V8.97938H16.2267V9.14264H16.2627ZM16.5882 9.14264V8.9458H16.5368L16.4777 9.08119L16.4186 8.9458H16.3671V9.14264H16.4034V8.99416L16.4589 9.12217H16.4965L16.5519 8.99384V9.14264H16.5882Z" fill="#808588"/>
</g>
<defs>
<clipPath id="clip0_645_1409">
<rect width="16.9341" height="12" fill="white" transform="translate(0.0788574)"/>
</clipPath>
</defs>
</svg>
