<svg width="42" height="12" viewBox="0 0 42 12" fill="none" xmlns="http://www.w3.org/2000/svg">
<g clip-path="url(#clip0_645_1393)">
<path fill-rule="evenodd" clip-rule="evenodd" d="M11.3179 2.2831e-07V0.0052404C11.3127 0.0052404 9.67738 1.99897e-07 9.24128 1.57729C8.84153 3.02358 7.71495 7.01659 7.6838 7.12664H7.37231C7.37231 7.12664 6.21977 3.04454 5.81483 1.57205C5.37874 -0.00523999 3.73819 2.2831e-07 3.73819 2.2831e-07H0.000244141V12H3.73819V4.87336H3.89394H4.04969L6.23016 12H8.82595L11.0064 4.8786H11.3179V12H15.0559V2.2831e-07H11.3179Z" fill="#808588"/>
<path fill-rule="evenodd" clip-rule="evenodd" d="M24.9718 0C24.9718 0 23.8764 0.0995633 23.3624 1.25764L20.7147 7.12664H20.4032V0H16.6653V12H20.1956C20.1956 12 21.3429 11.8952 21.8569 10.7424L24.4527 4.87336H24.7642V12H28.5021V0H24.9718Z" fill="#808588"/>
<path fill-rule="evenodd" clip-rule="evenodd" d="M30.1635 5.44971V11.9999H33.9014V8.1746H37.9508C39.716 8.1746 41.2112 7.03748 41.7667 5.44971H30.1635Z" fill="#808588"/>
<path fill-rule="evenodd" clip-rule="evenodd" d="M37.9508 0H29.639C30.0544 2.28472 31.752 4.11878 33.9481 4.71616C34.4465 4.8524 34.9708 4.92576 35.5107 4.92576H41.9172C41.9743 4.65328 42.0002 4.37555 42.0002 4.08734C42.0002 1.82882 40.1884 0 37.9508 0Z" fill="#D9DEE0"/>
</g>
<defs>
<clipPath id="clip0_645_1393">
<rect width="42" height="12" fill="white" transform="translate(0.000244141)"/>
</clipPath>
</defs>
</svg>
