<svg width="48" height="12" viewBox="0 0 48 12" fill="none" xmlns="http://www.w3.org/2000/svg">
<g clip-path="url(#clip0_645_1417)">
<path fill-rule="evenodd" clip-rule="evenodd" d="M21.6868 -0.0668284L20.9303 3.34984H18.4602L18.275 4.19984H20.5135L19.7107 7.79983H17.4413L17.2252 8.83317H19.649L18.9697 12.0665H13.4891L13.8288 10.5998H18.3985L18.5529 9.93317H13.9832L14.3074 8.4665H16.3915L16.5459 7.79983H14.4617L14.7859 6.33317H19.1241L19.2785 5.6665H14.9403L15.28 4.19984H17.3641L17.5185 3.53317H15.4343L15.7585 2.0665H20.3283L20.4826 1.39984H15.9284L16.2526 -0.0668284H21.6868ZM27.9393 -0.0668284L27.3372 1.39984H30.4711L30.3322 2.0665H27.0747L26.4726 3.53317H30.008L29.8382 4.19984H26.2102L26.1176 4.4165L25.886 -0.0668284H22.644L22.3198 1.39984H25.1604L25.1758 2.0665H22.1654L21.8258 3.53317H25.2222L25.2993 4.19984H21.6714L21.3472 5.6665H23.1843L23.0454 6.33317H21.1928L20.8686 7.79983H22.7212L22.5668 8.4665H20.7142L20.3746 9.93317H22.2271L22.0728 10.5998H20.2202L19.896 12.0665H22.6749L24.0797 5.6665H27.0284L26.7351 6.33317H24.0334L23.9562 7.79983H26.0867L25.8242 8.4665H23.9253L23.8482 9.93317H25.1758L24.9288 10.5998H23.8173L23.7401 12.0665H25.2067L27.4761 6.59984L27.1828 7.79983H29.0199L28.8501 8.4665H27.013L26.6579 9.93317H28.5568L28.387 10.5998H26.4881L26.133 12.0665H28.9582L31.7525 -0.0501607H27.9393V-0.0668284ZM29.3596 6.33317H27.5533L27.8158 5.6665H29.4831L29.3596 6.33317ZM37.4183 -0.0668284L38.5762 1.9165L38.1902 3.5165H35.365L35.4731 3.03317L34.8247 3.04983L34.5159 4.3165H36.1061L37.4801 6.5665L36.6773 10.2832L34.8865 12.0498H31.3048L30.3785 10.5832H35.0408L35.8436 9.9165H30.3476L30.6718 8.44984H33.5588L33.4353 9.11651H34.0837L34.2072 8.44984H36.1678L36.3068 7.78317H32.4781L31.2739 6.3165H36.5383L36.1061 5.64984H31.3048L31.6444 4.18317H33.6205L33.7749 3.5165H31.7988L32.1385 2.04983H37.619L37.2485 1.38317H32.5244L34.1454 -0.0834961H37.4183V-0.0668284Z" fill="#808588"/>
<path fill-rule="evenodd" clip-rule="evenodd" d="M5.49202 5.64984H13.5816L13.9058 4.18317H4.08714L5.49202 5.64984ZM11.6982 12.0498H12.1304L12.4546 10.5832H10.2933L11.6982 12.0498ZM3.40786 3.5165H14.0448L14.369 2.04984H2.01842L3.40786 3.5165ZM1.35458 1.38317H14.5388L14.863 -0.0834961H-0.050293L1.35458 1.38317ZM40.6448 -0.0668284L40.3514 1.39984H43.578V-0.0668284H40.6448ZM39.9037 3.5165H43.5626V2.04984H40.1971L39.9037 3.5165ZM39.4715 5.64984H43.5626V4.18317H39.7648L39.4715 5.64984ZM7.56073 7.78317H13.103L13.4272 6.3165H6.1713L7.56073 7.78317ZM9.62945 9.9165H12.6245L12.9487 8.44984H8.22457L9.62945 9.9165Z" fill="#D9DEE0"/>
<path d="M46.0691 4.18975L45.7758 5.64648H42.8425V4.18975H46.0691Z" fill="#D9DEE0"/>
<path d="M42.8818 2.05153H46.5406L46.2235 3.51908H42.858L42.8818 2.05153Z" fill="#D9DEE0"/>
<path d="M42.858 -0.000319004H46.9491L46.6558 1.4061H42.858V-0.000319004Z" fill="#D9DEE0"/>
</g>
<defs>
<clipPath id="clip0_645_1417">
<rect width="47" height="12" fill="white" transform="translate(0.0129395)"/>
</clipPath>
</defs>
</svg>
