<svg width="20" height="20" viewBox="0 0 20 20" fill="none" xmlns="http://www.w3.org/2000/svg">
<g clip-path="url(#clip0_1388_19151)">
<path d="M7.50065 3.33203H4.16732C3.70708 3.33203 3.33398 3.70513 3.33398 4.16536V7.4987C3.33398 7.95894 3.70708 8.33203 4.16732 8.33203H7.50065C7.96089 8.33203 8.33398 7.95894 8.33398 7.4987V4.16536C8.33398 3.70513 7.96089 3.33203 7.50065 3.33203Z" stroke="#C49A6C" stroke-linecap="round" stroke-linejoin="round"/>
<path d="M15.8327 3.33203H12.4993C12.0391 3.33203 11.666 3.70513 11.666 4.16536V7.4987C11.666 7.95894 12.0391 8.33203 12.4993 8.33203H15.8327C16.2929 8.33203 16.666 7.95894 16.666 7.4987V4.16536C16.666 3.70513 16.2929 3.33203 15.8327 3.33203Z" stroke="#C49A6C" stroke-linecap="round" stroke-linejoin="round"/>
<path d="M7.50065 11.668H4.16732C3.70708 11.668 3.33398 12.0411 3.33398 12.5013V15.8346C3.33398 16.2949 3.70708 16.668 4.16732 16.668H7.50065C7.96089 16.668 8.33398 16.2949 8.33398 15.8346V12.5013C8.33398 12.0411 7.96089 11.668 7.50065 11.668Z" stroke="#C49A6C" stroke-linecap="round" stroke-linejoin="round"/>
<path d="M15.8327 11.668H12.4993C12.0391 11.668 11.666 12.0411 11.666 12.5013V15.8346C11.666 16.2949 12.0391 16.668 12.4993 16.668H15.8327C16.2929 16.668 16.666 16.2949 16.666 15.8346V12.5013C16.666 12.0411 16.2929 11.668 15.8327 11.668Z" stroke="#C49A6C" stroke-linecap="round" stroke-linejoin="round"/>
</g>
<defs>
<clipPath id="clip0_1388_19151">
<rect width="20" height="20" fill="white"/>
</clipPath>
</defs>
</svg>
