<svg width="20" height="20" viewBox="0 0 20 20" fill="none" xmlns="http://www.w3.org/2000/svg">
<g clip-path="url(#clip0_936_45711)">
<path d="M7.50065 3.33301H4.16732C3.70708 3.33301 3.33398 3.7061 3.33398 4.16634V7.49967C3.33398 7.95991 3.70708 8.33301 4.16732 8.33301H7.50065C7.96089 8.33301 8.33398 7.95991 8.33398 7.49967V4.16634C8.33398 3.7061 7.96089 3.33301 7.50065 3.33301Z" stroke="#33383A" stroke-linecap="round" stroke-linejoin="round"/>
<path d="M15.8327 3.33301H12.4993C12.0391 3.33301 11.666 3.7061 11.666 4.16634V7.49967C11.666 7.95991 12.0391 8.33301 12.4993 8.33301H15.8327C16.2929 8.33301 16.666 7.95991 16.666 7.49967V4.16634C16.666 3.7061 16.2929 3.33301 15.8327 3.33301Z" stroke="#33383A" stroke-linecap="round" stroke-linejoin="round"/>
<path d="M7.50065 11.667H4.16732C3.70708 11.667 3.33398 12.0401 3.33398 12.5003V15.8337C3.33398 16.2939 3.70708 16.667 4.16732 16.667H7.50065C7.96089 16.667 8.33398 16.2939 8.33398 15.8337V12.5003C8.33398 12.0401 7.96089 11.667 7.50065 11.667Z" stroke="#33383A" stroke-linecap="round" stroke-linejoin="round"/>
<path d="M15.8327 11.667H12.4993C12.0391 11.667 11.666 12.0401 11.666 12.5003V15.8337C11.666 16.2939 12.0391 16.667 12.4993 16.667H15.8327C16.2929 16.667 16.666 16.2939 16.666 15.8337V12.5003C16.666 12.0401 16.2929 11.667 15.8327 11.667Z" stroke="#33383A" stroke-linecap="round" stroke-linejoin="round"/>
</g>
<defs>
<clipPath id="clip0_936_45711">
<rect width="20" height="20" fill="white"/>
</clipPath>
</defs>
</svg>
