<svg width="38" height="12" viewBox="0 0 38 12" fill="none" xmlns="http://www.w3.org/2000/svg">
<g clip-path="url(#clip0_645_1402)">
<path d="M16.0676 11.8268H13.064L14.9426 0.210449H17.9461L16.0676 11.8268Z" fill="#808588"/>
<path d="M26.9559 0.494553C26.3635 0.259513 25.4238 0 24.2619 0C21.2958 0 19.207 1.58171 19.1942 3.84309C19.1696 5.51153 20.6897 6.43822 21.8266 6.99453C22.9887 7.56299 23.3837 7.93403 23.3837 8.44074C23.3719 9.21895 22.4447 9.57767 21.5799 9.57767C20.3807 9.57767 19.7382 9.39272 18.7617 8.95976L18.3662 8.77416L17.9459 11.3818C18.6504 11.7027 19.9483 11.9875 21.2958 12C24.4474 12 26.4992 10.4428 26.5235 8.03291C26.5355 6.71054 25.7328 5.69729 24.0023 4.86931C22.9517 4.33781 22.3084 3.97942 22.3084 3.43559C22.3207 2.9412 22.8525 2.43482 24.0384 2.43482C25.0149 2.41002 25.7323 2.64473 26.2758 2.87961L26.5475 3.00296L26.9559 0.494553Z" fill="#808588"/>
<path d="M30.948 7.71152C31.1953 7.04418 32.1472 4.46137 32.1472 4.46137C32.1347 4.48617 32.394 3.78171 32.5424 3.34924L32.7523 4.35017C32.7523 4.35017 33.3211 7.13074 33.4446 7.71152C32.9751 7.71152 31.5413 7.71152 30.948 7.71152ZM34.6556 0.210449H32.3323C31.6158 0.210449 31.0715 0.420359 30.7624 1.17426L26.3009 11.8266H29.4525C29.4525 11.8266 29.9714 10.3929 30.0829 10.0841C30.4286 10.0841 33.4945 10.0841 33.9393 10.0841C34.0255 10.4919 34.2977 11.8266 34.2977 11.8266H37.0787L34.6556 0.210449Z" fill="#808588"/>
<path d="M10.5552 0.210449L7.61366 8.13167L7.29222 6.52515C6.7484 4.67144 5.04284 2.65743 3.13953 1.656L5.83386 11.8144H9.0101L13.7313 0.210449H10.5552Z" fill="#808588"/>
<path d="M4.88221 0.210449H0.0496828L0.000244141 0.44516C3.76991 1.40914 6.26649 3.73276 7.29222 6.52564L6.24169 1.18691C6.06874 0.444996 5.53723 0.234922 4.88221 0.210449Z" fill="#D9DEE0"/>
</g>
<defs>
<clipPath id="clip0_645_1402">
<rect width="37.0785" height="12" fill="white" transform="translate(0.000244141)"/>
</clipPath>
</defs>
</svg>
