<svg width="20" height="20" viewBox="0 0 20 20" fill="none" xmlns="http://www.w3.org/2000/svg">
<g clip-path="url(#clip0_868_103808)">
<path d="M11.6667 6.66536V4.9987C11.6667 4.55667 11.4911 4.13275 11.1785 3.82019C10.8659 3.50763 10.442 3.33203 10 3.33203H4.16667C3.72464 3.33203 3.30072 3.50763 2.98816 3.82019C2.67559 4.13275 2.5 4.55667 2.5 4.9987V14.9987C2.5 15.4407 2.67559 15.8646 2.98816 16.1772C3.30072 16.4898 3.72464 16.6654 4.16667 16.6654H10C10.442 16.6654 10.8659 16.4898 11.1785 16.1772C11.4911 15.8646 11.6667 15.4407 11.6667 14.9987V13.332" stroke="#808588" stroke-linecap="round" stroke-linejoin="round"/>
<path d="M5.83984 10H17.5065L15.0065 7.5M15.0065 12.5L17.5065 10" stroke="#808588" stroke-linecap="round" stroke-linejoin="round"/>
</g>
<defs>
<clipPath id="clip0_868_103808">
<rect width="20" height="20" fill="white"/>
</clipPath>
</defs>
</svg>
