<svg width="20" height="20" viewBox="0 0 20 20" fill="none" xmlns="http://www.w3.org/2000/svg">
<g clip-path="url(#clip0_419_3524)">
<path d="M16.25 11.31L10 17.5L3.75 11.31C3.33775 10.9088 3.01303 10.4267 2.79629 9.89386C2.57954 9.36104 2.47546 8.78912 2.49061 8.21411C2.50576 7.63909 2.6398 7.07344 2.88429 6.55278C3.12879 6.03211 3.47844 5.56771 3.91124 5.18881C4.34403 4.80992 4.85058 4.52474 5.39901 4.35123C5.94743 4.17772 6.52583 4.11965 7.0978 4.18067C7.66977 4.24168 8.22291 4.42046 8.72239 4.70575C9.22187 4.99104 9.65687 5.37666 10 5.83833C10.3446 5.38002 10.7801 4.99776 11.2792 4.7155C11.7784 4.43324 12.3304 4.25704 12.9008 4.19793C13.4711 4.13882 14.0476 4.19808 14.594 4.37199C15.1404 4.5459 15.645 4.83072 16.0763 5.20863C16.5076 5.58654 16.8562 6.0494 17.1003 6.56824C17.3445 7.08708 17.4789 7.65073 17.4953 8.22392C17.5116 8.79711 17.4094 9.36749 17.1951 9.89937C16.9808 10.4313 16.6591 10.9132 16.25 11.315" stroke="#33383A" stroke-linecap="round" stroke-linejoin="round"/>
</g>
<defs>
<clipPath id="clip0_419_3524">
<rect width="20" height="20" fill="white"/>
</clipPath>
</defs>
</svg>
