<svg width="102" height="46" viewBox="0 0 102 46" fill="none" xmlns="http://www.w3.org/2000/svg">
<g clip-path="url(#clip0_402_28406)">
<path d="M35.6758 0H30.5719V5.10317H35.6758V0Z" fill="black"/>
<path d="M45.8834 0H40.7796V5.10317H45.8834V0Z" fill="black"/>
<path d="M96.8962 0H51.074V5.10317H96.8962V40.8968H5.10383V5.10317H25.4681V0H5.10383H0.0204153H0V46H0.0204153H5.10383H96.8962H102V40.8968V5.10317V0H96.8962Z" fill="black"/>
<path d="M15.2911 10.2268H10.1974L17.8634 35.7324H22.9672L30.6383 10.2268H25.5191L20.4153 29.0983L15.2911 10.2268Z" fill="black"/>
<path d="M32.6696 35.7324L34.5887 29.134H42.1066L44.1124 35.7324H49.1244L40.6826 10.2268H35.8442L27.6577 35.7324H32.6645H32.6696ZM40.7796 24.7606H35.8595L38.2634 16.4935L40.7796 24.7606Z" fill="black"/>
<path d="M68.1769 17.4784C68.1769 13.105 65.3698 10.2268 60.4089 10.2268H51.1046V35.7324H55.8461V24.73H58.3265L65.1861 35.7324H70.4736L63.3946 24.3268C66.4569 23.4185 68.1718 20.8669 68.1718 17.4784H68.1769ZM60.4446 20.3566H55.8461V14.6002H60.4446C62.3075 14.6002 63.4355 15.4728 63.4355 17.4784C63.4355 19.4839 62.3024 20.3566 60.4446 20.3566Z" fill="black"/>
<path d="M91.8485 22.9796C91.8485 14.3807 86.1271 10.2268 79.6555 10.2268H71.4638V35.7324H79.6555C86.1271 35.7324 91.8485 31.5784 91.8485 22.9796V22.9796ZM84.3714 29.5014C82.6871 30.7415 80.6303 31.359 78.1243 31.359H76.3278V14.6002H78.1243C80.6303 14.6002 82.6871 15.2177 84.3714 16.4935C86.0556 17.7335 86.9131 19.882 86.9131 22.9796C86.9131 26.0772 86.0556 28.2257 84.3714 29.5014Z" fill="black"/>
</g>
<defs>
<clipPath id="clip0_402_28406">
<rect width="102" height="46" fill="white"/>
</clipPath>
</defs>
</svg>
