<svg width="22" height="22" viewBox="0 0 22 22" fill="none" xmlns="http://www.w3.org/2000/svg">
<g opacity="0.3">
<circle cx="11" cy="11" r="10.5" stroke="#D9DEE0"/>
<path d="M5.8667 10.5C5.59056 10.5 5.3667 10.7239 5.3667 11C5.3667 11.2761 5.59056 11.5 5.8667 11.5V10.5ZM16.4869 11.3536C16.6822 11.1583 16.6822 10.8417 16.4869 10.6464L13.3049 7.46447C13.1097 7.2692 12.7931 7.2692 12.5978 7.46447C12.4026 7.65973 12.4026 7.97631 12.5978 8.17157L15.4263 11L12.5978 13.8284C12.4026 14.0237 12.4026 14.3403 12.5978 14.5355C12.7931 14.7308 13.1097 14.7308 13.3049 14.5355L16.4869 11.3536ZM5.8667 11.5H16.1334V10.5H5.8667V11.5Z" fill="#808588"/>
</g>
</svg>
