<svg width="85" height="20" viewBox="0 0 85 20" fill="none" xmlns="http://www.w3.org/2000/svg">
<path d="M35.5817 14.4602H28.3329L37.5871 2.25695C37.7888 1.98899 37.7328 1.59821 37.4639 1.39725C37.3631 1.31909 37.2286 1.27443 37.0942 1.27443H23.7057C22.5294 1.27443 21.5658 2.23462 21.5658 3.40694C21.5658 4.57926 22.5294 5.53944 23.7057 5.53944H29.7221L20.4343 17.7539C20.2214 18.0219 20.2774 18.4015 20.5463 18.6136C20.6583 18.7029 20.7928 18.7476 20.9272 18.7364H35.5705C36.7469 18.6806 37.6544 17.6757 37.5983 16.4923C37.5423 15.3981 36.6684 14.5272 35.5705 14.4714V14.4602H35.5817ZM82.3683 1.27443C81.192 1.27443 80.2284 2.23462 80.2284 3.40694V10.5637L68.6662 1.41958C68.4085 1.20744 68.0164 1.24094 67.8035 1.5089C67.7139 1.62054 67.6691 1.75452 67.6691 1.89967V16.6039C67.6691 17.7762 68.6326 18.7364 69.809 18.7364C70.9854 18.7364 71.9489 17.7874 71.9489 16.6039V9.44717L83.5111 18.6024C83.78 18.8146 84.1721 18.7699 84.385 18.5019C84.4746 18.3903 84.5195 18.2563 84.5195 18.1223V3.40694C84.5083 2.22345 83.5559 1.27443 82.3683 1.27443ZM51.771 14.8622C46.875 14.8622 43.2226 12.2942 43.2226 9.99426C43.2226 7.69428 46.8862 5.12634 51.771 5.12634C56.667 5.12634 60.3195 7.69428 60.3195 9.99426C60.3195 12.2942 56.6782 14.8622 51.771 14.8622ZM51.771 0.861328C44.6903 0.861328 38.9428 4.9477 38.9428 9.99426C38.9428 15.0408 44.6903 19.1272 51.771 19.1272C58.8518 19.1272 64.5993 15.0408 64.5993 9.99426C64.5993 4.9477 58.8518 0.861328 51.771 0.861328ZM9.6563 14.8733C6.95621 14.8733 4.76028 12.6962 4.76028 10.0054C4.76028 7.31467 6.94501 5.12634 9.6451 5.12634C12.3452 5.12634 14.5411 7.3035 14.5411 9.99426V10.0054C14.5411 12.685 12.3564 14.8622 9.6563 14.8733ZM9.6563 0.861328C4.59223 0.861328 0.491672 4.9477 0.480469 9.99426C0.480469 15.0408 4.58103 19.1272 9.6451 19.1383C14.7092 19.1383 18.8097 15.052 18.8209 10.0054V9.99426C18.8097 4.9477 14.7092 0.861328 9.6563 0.861328Z" fill="white"/>
</svg>
