<svg width="20" height="20" viewBox="0 0 20 20" fill="none" xmlns="http://www.w3.org/2000/svg">
<g clip-path="url(#clip0_3396_63508)">
<path d="M2.5 2.5L17.5 17.5" stroke="#C49A6C" stroke-linecap="round" stroke-linejoin="round"/>
<path d="M8.82021 8.82251C8.50748 9.13502 8.3317 9.55897 8.33154 10.0011C8.33139 10.4432 8.50687 10.8673 8.81938 11.18C9.13189 11.4927 9.55584 11.6685 9.99796 11.6687C10.4401 11.6688 10.8641 11.4934 11.1769 11.1808" stroke="#C49A6C" stroke-linecap="round" stroke-linejoin="round"/>
<path d="M7.80234 4.47072C8.51685 4.26632 9.25667 4.16392 9.99984 4.16655C13.3332 4.16655 16.1107 6.11072 18.3332 9.99989C17.6848 11.1341 16.9898 12.1032 16.2473 12.9066M14.464 14.4574C13.1048 15.3741 11.6182 15.8332 9.99984 15.8332C6.6665 15.8332 3.889 13.8891 1.6665 9.99989C2.80734 8.00405 4.094 6.52072 5.5265 5.54905" stroke="#C49A6C" stroke-linecap="round" stroke-linejoin="round"/>
</g>
<defs>
<clipPath id="clip0_3396_63508">
<rect width="20" height="20" fill="white"/>
</clipPath>
</defs>
</svg>
