<svg width="22" height="22" viewBox="0 0 22 22" fill="none" xmlns="http://www.w3.org/2000/svg">
<circle cx="11" cy="11" r="10.5" transform="matrix(-1 0 0 1 22 0)" stroke="#D9DEE0"/>
<path d="M16.1333 10.5C16.4094 10.5 16.6333 10.7239 16.6333 11C16.6333 11.2761 16.4094 11.5 16.1333 11.5V10.5ZM5.51308 11.3536C5.31782 11.1583 5.31782 10.8417 5.51308 10.6464L8.69506 7.46447C8.89032 7.2692 9.20691 7.2692 9.40217 7.46447C9.59743 7.65973 9.59743 7.97631 9.40217 8.17157L6.57374 11L9.40217 13.8284C9.59743 14.0237 9.59743 14.3403 9.40217 14.5355C9.20691 14.7308 8.89032 14.7308 8.69506 14.5355L5.51308 11.3536ZM16.1333 11.5H5.86663V10.5H16.1333V11.5Z" fill="#808588"/>
</svg>
