<svg width="20" height="20" viewBox="0 0 20 20" fill="none" xmlns="http://www.w3.org/2000/svg">
<path d="M4.69723 14.5957C4.50197 14.7909 4.50197 15.1075 4.69723 15.3028C4.89249 15.498 5.20907 15.498 5.40433 15.3028L4.69723 14.5957ZM15.4503 5.04972C15.4503 4.77358 15.2264 4.54972 14.9503 4.54972L10.4503 4.54972C10.1741 4.54972 9.95028 4.77358 9.95028 5.04972C9.95028 5.32587 10.1741 5.54972 10.4503 5.54972L14.4503 5.54972L14.4503 9.54972C14.4503 9.82587 14.6741 10.0497 14.9503 10.0497C15.2264 10.0497 15.4503 9.82587 15.4503 9.54972L15.4503 5.04972ZM5.40433 15.3028L15.3038 5.40328L14.5967 4.69617L4.69723 14.5957L5.40433 15.3028Z" fill="#808588"/>
</svg>
