<svg width="24" height="24" viewBox="0 0 24 24" fill="none" xmlns="http://www.w3.org/2000/svg">
<path d="M9.66667 5.3335H6.33333C5.8731 5.3335 5.5 5.70659 5.5 6.16683V9.50016C5.5 9.9604 5.8731 10.3335 6.33333 10.3335H9.66667C10.1269 10.3335 10.5 9.9604 10.5 9.50016V6.16683C10.5 5.70659 10.1269 5.3335 9.66667 5.3335Z" stroke="#808588" stroke-linecap="round" stroke-linejoin="round"/>
<path d="M17.6667 5.3335H14.3333C13.8731 5.3335 13.5 5.70659 13.5 6.16683V9.50016C13.5 9.9604 13.8731 10.3335 14.3333 10.3335H17.6667C18.1269 10.3335 18.5 9.9604 18.5 9.50016V6.16683C18.5 5.70659 18.1269 5.3335 17.6667 5.3335Z" stroke="#808588" stroke-linecap="round" stroke-linejoin="round"/>
<path d="M9.66667 13.6665H6.33333C5.8731 13.6665 5.5 14.0396 5.5 14.4998V17.8332C5.5 18.2934 5.8731 18.6665 6.33333 18.6665H9.66667C10.1269 18.6665 10.5 18.2934 10.5 17.8332V14.4998C10.5 14.0396 10.1269 13.6665 9.66667 13.6665Z" stroke="#808588" stroke-linecap="round" stroke-linejoin="round"/>
<path d="M17.6667 13.6665H14.3333C13.8731 13.6665 13.5 14.0396 13.5 14.4998V17.8332C13.5 18.2934 13.8731 18.6665 14.3333 18.6665H17.6667C18.1269 18.6665 18.5 18.2934 18.5 17.8332V14.4998C18.5 14.0396 18.1269 13.6665 17.6667 13.6665Z" stroke="#808588" stroke-linecap="round" stroke-linejoin="round"/>
</svg>
