<svg width="24" height="24" viewBox="0 0 24 24" fill="none" xmlns="http://www.w3.org/2000/svg">
<path d="M16.7224 6.44446H7.27794C6.89441 6.44446 6.5835 6.75537 6.5835 7.1389V9.91668C6.5835 10.3002 6.89441 10.6111 7.27794 10.6111H16.7224C17.1059 10.6111 17.4168 10.3002 17.4168 9.91668V7.1389C17.4168 6.75537 17.1059 6.44446 16.7224 6.44446Z" stroke="#1C1E1F" stroke-linecap="round" stroke-linejoin="round"/>
<path d="M16.7224 13.3889H7.27794C6.89441 13.3889 6.5835 13.6998 6.5835 14.0833V16.8611C6.5835 17.2446 6.89441 17.5555 7.27794 17.5555H16.7224C17.1059 17.5555 17.4168 17.2446 17.4168 16.8611V14.0833C17.4168 13.6998 17.1059 13.3889 16.7224 13.3889Z" stroke="#1C1E1F" stroke-linecap="round" stroke-linejoin="round"/>
</svg>
