<svg width="24" height="24" viewBox="0 0 24 24" fill="none" xmlns="http://www.w3.org/2000/svg">
<rect width="24" height="24" fill="#C49A6C"/>
<path d="M16.7224 6.44434H7.27794C6.89441 6.44434 6.5835 6.75525 6.5835 7.13878V9.91656C6.5835 10.3001 6.89441 10.611 7.27794 10.611H16.7224C17.1059 10.611 17.4168 10.3001 17.4168 9.91656V7.13878C17.4168 6.75525 17.1059 6.44434 16.7224 6.44434Z" stroke="white" stroke-linecap="round" stroke-linejoin="round"/>
<path d="M16.7224 13.3887H7.27794C6.89441 13.3887 6.5835 13.6996 6.5835 14.0831V16.8609C6.5835 17.2444 6.89441 17.5553 7.27794 17.5553H16.7224C17.1059 17.5553 17.4168 17.2444 17.4168 16.8609V14.0831C17.4168 13.6996 17.1059 13.3887 16.7224 13.3887Z" stroke="white" stroke-linecap="round" stroke-linejoin="round"/>
</svg>
