<svg width="24" height="24" viewBox="0 0 24 24" fill="none" xmlns="http://www.w3.org/2000/svg">
<rect width="24" height="24" fill="#C49A6C"/>
<path d="M10.0557 6.44446H7.27794C6.89441 6.44446 6.5835 6.75537 6.5835 7.1389V9.91668C6.5835 10.3002 6.89441 10.6111 7.27794 10.6111H10.0557C10.4392 10.6111 10.7502 10.3002 10.7502 9.91668V7.1389C10.7502 6.75537 10.4392 6.44446 10.0557 6.44446Z" stroke="white" stroke-linecap="round" stroke-linejoin="round"/>
<path d="M16.7222 6.44446H13.9444C13.5609 6.44446 13.25 6.75537 13.25 7.1389V9.91668C13.25 10.3002 13.5609 10.6111 13.9444 10.6111H16.7222C17.1058 10.6111 17.4167 10.3002 17.4167 9.91668V7.1389C17.4167 6.75537 17.1058 6.44446 16.7222 6.44446Z" stroke="white" stroke-linecap="round" stroke-linejoin="round"/>
<path d="M10.0557 13.3889H7.27794C6.89441 13.3889 6.5835 13.6998 6.5835 14.0833V16.8611C6.5835 17.2446 6.89441 17.5555 7.27794 17.5555H10.0557C10.4392 17.5555 10.7502 17.2446 10.7502 16.8611V14.0833C10.7502 13.6998 10.4392 13.3889 10.0557 13.3889Z" stroke="white" stroke-linecap="round" stroke-linejoin="round"/>
<path d="M16.7222 13.3889H13.9444C13.5609 13.3889 13.25 13.6998 13.25 14.0833V16.8611C13.25 17.2446 13.5609 17.5555 13.9444 17.5555H16.7222C17.1058 17.5555 17.4167 17.2446 17.4167 16.8611V14.0833C17.4167 13.6998 17.1058 13.3889 16.7222 13.3889Z" stroke="white" stroke-linecap="round" stroke-linejoin="round"/>
</svg>
