<svg width="255" height="28" viewBox="0 0 255 28" fill="none" xmlns="http://www.w3.org/2000/svg">
<g clip-path="url(#clip0_1667_65661)">
<path fill-rule="evenodd" clip-rule="evenodd" d="M49.1958 0.215155H33.4666C30.3282 0.215155 27.7766 2.6986 27.7766 5.75215V17.8995C27.7766 20.9538 30.3282 23.4365 33.4666 23.4365H49.1958C49.2894 23.4365 49.3791 23.4004 49.4454 23.3361C49.5116 23.2718 49.5489 23.1845 49.5491 23.0935V19.441C49.5491 19.2536 49.3909 19.0996 49.1958 19.0996H32.9238C32.6312 19.0996 32.3858 18.8593 32.3858 18.5754V13.8449H45.0615C45.2565 13.8449 45.414 13.6917 45.414 13.5043V9.85104C45.414 9.6636 45.2565 9.5096 45.0615 9.5096L32.3858 9.50882V5.07704C32.3858 4.7916 32.6312 4.54971 32.9238 4.54971H49.1958C49.3909 4.54971 49.5491 4.39727 49.5491 4.20904V0.557377C49.5491 0.368377 49.3909 0.215155 49.1958 0.215155ZM23.1035 0.215155H0.350125C0.156677 0.215155 0 0.368377 0 0.556599V4.3436C0 4.53104 0.156677 4.68349 0.350125 4.68349H9.25834V23.0639C9.25834 23.2506 9.41582 23.4062 9.60846 23.4062H13.8443C14.0362 23.4062 14.1937 23.2506 14.1937 23.0639V4.68349H23.1035C23.2953 4.68349 23.4544 4.53104 23.4544 4.3436V0.556599C23.4544 0.368377 23.2953 0.215155 23.1035 0.215155ZM67.0882 14.1985L73.99 22.905C73.99 22.905 74.4088 23.4292 75.0675 23.4292H79.3817C79.5752 23.4292 79.7343 23.3973 79.7343 23.2083C79.7343 23.0776 79.3817 22.625 79.3817 22.625L70.9875 11.8208L79.3817 1.01907C79.3817 1.01907 79.7343 0.56951 79.7343 0.462177C79.7343 0.307399 79.6679 0.214844 79.3817 0.214844H75.0675C74.3249 0.214844 73.9708 0.739844 73.9708 0.739844L67.0882 9.44473L60.2056 0.739844C60.2056 0.739844 59.8515 0.214844 59.1088 0.214844H54.7946C54.5084 0.214844 54.4421 0.307399 54.4421 0.462177C54.4421 0.56951 54.7946 1.01907 54.7946 1.01907L63.1896 11.8208L54.7954 22.625C54.7954 22.625 54.4421 23.0776 54.4421 23.2083C54.4421 23.3973 54.6012 23.4292 54.7946 23.4292H59.1088C59.7667 23.4292 60.1872 22.905 60.1872 22.905L67.0882 14.1985ZM108.323 0.21741H104.278C104.086 0.21741 103.927 0.370633 103.927 0.559633V9.44885H90.3579L90.3499 0.559633C90.3499 0.370633 90.1933 0.21741 89.9998 0.21741H85.9534C85.7615 0.21741 85.6033 0.370633 85.6033 0.559633V23.0911C85.6033 23.2801 85.7615 23.4341 85.9534 23.4341H89.9998C90.1933 23.4341 90.3499 23.2801 90.3499 23.0911L90.3579 13.918H103.927V23.0911C103.927 23.2801 104.086 23.4341 104.278 23.4341H108.323C108.516 23.4341 108.673 23.2801 108.673 23.0911V0.559633C108.673 0.370633 108.516 0.21741 108.323 0.21741ZM164.287 0.21741H152.338C149.213 0.21741 146.668 2.69308 146.668 5.73497V23.0911C146.668 23.2801 146.825 23.4341 147.018 23.4341H151.063C151.257 23.4341 151.414 23.2801 151.414 23.0911V5.20997C151.414 4.92608 151.66 4.68574 151.951 4.68574H164.674C164.965 4.68574 165.212 4.92608 165.212 5.20997V23.0911C165.212 23.2801 165.37 23.4341 165.562 23.4341H169.606C169.7 23.4341 169.789 23.3979 169.855 23.3336C169.922 23.2693 169.959 23.182 169.959 23.0911V5.73497C169.959 2.69308 167.413 0.21741 164.287 0.21741ZM222.713 12.0262C222.713 12.3101 222.468 12.5481 222.178 12.5481H210.286V5.06195C210.286 4.77729 210.532 4.53695 210.823 4.53695H222.178C222.468 4.53695 222.713 4.77729 222.713 5.06195V12.0262ZM221.637 0.217177H211.362C208.236 0.217177 205.691 2.69284 205.691 5.73473V23.0916C205.691 23.2814 205.849 23.4338 206.043 23.4338H209.935C210.127 23.4338 210.286 23.2814 210.286 23.0916V16.871H222.178C225.303 16.871 227.308 14.3953 227.308 11.3534V5.73473C227.308 2.69284 224.765 0.217177 221.637 0.217177ZM244.8 11.1675L253.544 0.984066C253.544 0.984066 254.248 0.217177 252.978 0.217177H249.277C248.631 0.217177 248.198 0.741399 248.198 0.741399L240.567 9.68195H237.287L237.285 0.559399C237.285 0.370399 237.128 0.217177 236.934 0.217177H233.043C232.849 0.217177 232.692 0.370399 232.692 0.559399L232.693 23.0908C232.693 23.2806 232.85 23.4338 233.044 23.4338H236.936C237.129 23.4338 237.287 23.2806 237.287 23.0908V14.1495H241.653L249.131 22.9096C249.131 22.9096 249.608 23.4338 250.21 23.4338H254.055C255.326 23.4338 254.623 22.6545 254.623 22.6545L244.8 11.1675Z" fill="#808588"/>
<path fill-rule="evenodd" clip-rule="evenodd" d="M135.286 14.8662C135.286 15.1517 135.038 15.3912 134.745 15.3912H120.751C120.459 15.3912 120.21 15.1517 120.21 14.8662V5.23424C120.21 4.94802 120.459 4.70691 120.751 4.70691H134.745C135.038 4.70691 135.286 4.94802 135.286 5.23424V14.8662ZM134.206 0.216797H121.29C118.15 0.216797 115.595 2.70335 115.595 5.75924V14.342C115.595 17.3964 118.15 19.8814 121.29 19.8814H134.206C137.347 19.8814 139.901 17.3964 139.901 14.342V5.75924C139.901 2.70335 137.347 0.216797 134.206 0.216797ZM139.826 27.0727V23.4335C139.826 23.2452 139.669 23.0912 139.475 23.0912H115.945C115.752 23.0912 115.593 23.2452 115.593 23.4335V27.0727C115.593 27.2601 115.752 27.4133 115.945 27.4133H139.475C139.669 27.4133 139.826 27.2601 139.826 27.0727Z" fill="#33383A"/>
<path fill-rule="evenodd" clip-rule="evenodd" d="M187.957 13.9332H193.244L190.622 6.16788C190.436 5.61333 189.827 4.47622 187.957 4.47622C186.087 4.47622 185.476 5.61333 185.291 6.16788L182.669 13.9332H187.957ZM181.253 18.1495L179.594 23.0939C179.594 23.0939 179.513 23.433 179.242 23.433H175.191C174.817 23.433 174.932 23.09 174.932 23.09L181.192 4.64811C181.945 2.40422 183.657 0.111328 187.957 0.111328C192.256 0.111328 193.968 2.40422 194.722 4.64811L200.981 23.09C200.981 23.09 201.097 23.433 200.722 23.433H196.671C196.4 23.433 196.321 23.0939 196.321 23.0939L194.66 18.1495H181.253Z" fill="#808588"/>
</g>
<defs>
<clipPath id="clip0_1667_65661">
<rect width="255" height="28" fill="white"/>
</clipPath>
</defs>
</svg>
