<svg width="272" height="36" viewBox="0 0 272 36" fill="none" xmlns="http://www.w3.org/2000/svg">
<path fill-rule="evenodd" clip-rule="evenodd" d="M183.544 28.489L176.345 19.7205V28.489H171.614V8.63605H176.345V16.4936L182.927 8.63605H188.892L181.076 17.9669L189.714 28.489H183.544ZM162.769 8.63605H167.5V28.489H162.769V8.63605ZM155.571 28.6875C154.561 28.6875 153.665 28.2198 153.102 27.4965L153.101 27.4945L145.492 14.989L145.501 14.9635C145.498 14.9647 145.495 14.966 145.492 14.9671V14.989V28.489H140.761V11.8125C140.761 9.94849 142.326 8.4375 144.258 8.4375C145.594 8.4375 146.754 9.16153 147.343 10.2247L153.925 20.9449V8.4375H158.656V25.511L158.646 25.5205C158.65 25.5833 158.656 25.6459 158.656 25.7095C158.656 27.3542 157.274 28.6875 155.571 28.6875ZM127.597 28.489C126.12 28.489 124.923 27.3335 124.923 25.9081V23.9228V8.63605H129.654V23.9228H137.881V28.489H129.654H127.597ZM116.079 8.63605H120.809V28.489H116.079V8.63605ZM100.652 28.489H95.9211V8.63605H100.652C100.652 8.63605 106.638 8.4659 109.291 10.6213C111.962 12.7912 112.787 15.1929 112.787 18.5625C112.787 21.9323 111.962 24.3338 109.291 26.5037C106.638 28.6593 100.652 28.489 100.652 28.489ZM104.766 13.0037C103.277 12.4198 100.652 12.6066 100.652 12.6066V24.5184C100.652 24.5184 103.277 24.7054 104.766 24.1213C107.296 23.1287 108.056 21.1986 108.056 18.5625C108.056 15.9264 107.296 13.9963 104.766 13.0037ZM83.3741 28.6875C77.9108 28.6875 74.1183 24.7169 74.1183 18.5625C74.1183 12.4081 77.9108 8.4375 83.3741 8.4375C88.8375 8.4375 92.6299 12.4081 92.6299 18.5625C92.6299 24.7169 88.8375 28.6875 83.3741 28.6875ZM83.3741 12.4081C80.3206 12.4081 78.8488 15.6154 78.8488 18.5625C78.8488 21.5096 80.3206 24.7169 83.3741 24.7169C86.4277 24.7169 87.899 21.5096 87.899 18.5625C87.899 15.6154 86.4277 12.4081 83.3741 12.4081ZM61.777 28.489C60.3001 28.489 59.103 27.3335 59.103 25.9081V23.9228V8.63605H63.8338V23.9228H72.0613V28.489H63.8338H61.777ZM46.5561 28.6875C41.0928 28.6875 37.3002 24.7169 37.3002 18.5625C37.3002 12.4081 41.0928 8.4375 46.5561 8.4375C52.0193 8.4375 55.812 12.4081 55.812 18.5625C55.812 24.7169 52.0193 28.6875 46.5561 28.6875ZM46.5561 12.4081C43.5027 12.4081 42.031 15.6154 42.031 18.5625C42.031 21.5096 43.5027 24.7169 46.5561 24.7169C49.6095 24.7169 51.0812 21.5096 51.0812 18.5625C51.0812 15.6154 49.6095 12.4081 46.5561 12.4081ZM29.4841 20.3493H21.8736V28.489H17.1428V20.3493V15.7831V8.63605H21.8736V15.7831H29.4841V8.63605H34.2149V15.7831V20.3493V28.489H29.4841V20.3493Z" fill="#808588"/>
<path fill-rule="evenodd" clip-rule="evenodd" d="M207.882 31.0549L197.775 33.5944C194.583 34.3964 191.484 31.9965 191.484 28.7215V7.27883C191.484 3.96872 194.645 1.56236 197.858 2.4275L207.965 5.14809C210.168 5.74121 211.698 7.72942 211.698 9.99944V26.182C211.698 28.4837 210.126 30.491 207.882 31.0549ZM200.959 14.85C199.215 14.85 197.801 16.2603 197.801 18C197.801 19.7397 199.215 21.15 200.959 21.15C202.704 21.15 204.118 19.7397 204.118 18C204.118 16.2603 202.704 14.85 200.959 14.85Z" fill="#33383A"/>
<path fill-rule="evenodd" clip-rule="evenodd" d="M228.263 29.5881L221.214 20.6215V29.5883H215.984V7.17188H221.214C221.214 7.17188 223.147 7.17188 225.534 7.17188C229.301 7.17188 232.356 10.1826 232.356 13.8966C232.356 17.0082 230.212 19.6251 227.301 20.3926L234.63 29.5881H228.263ZM224.625 11.4308C222.464 11.4308 221.214 11.4308 221.214 11.4308V16.3624C221.214 16.3624 222.464 16.3624 224.625 16.3624C226.006 16.3624 227.126 15.2584 227.126 13.8966C227.126 12.5348 226.006 11.4308 224.625 11.4308Z" fill="#33383A"/>
<path fill-rule="evenodd" clip-rule="evenodd" d="M245.437 29.8125C240.65 29.8125 236.114 27.1378 236.114 21.9667V7.17188H241.344C241.344 7.17188 241.344 15.9542 241.344 21.2943C241.344 23.4238 243.047 25.3292 245.437 25.3292C247.827 25.3292 249.53 23.4238 249.53 21.2943C249.53 15.9542 249.53 7.17188 249.53 7.17188H254.76V21.9667C254.76 27.2117 250.223 29.8125 245.437 29.8125Z" fill="#33383A"/>
</svg>
