<svg width="126" height="56" viewBox="0 0 126 56" fill="none" xmlns="http://www.w3.org/2000/svg">
<path d="M53.9174 8.50774C54.0784 8.92984 54.1414 9.37854 54.1239 9.83634L54.1057 10.0967H52.404L52.4222 9.80974C52.4401 9.5621 52.4033 9.31356 52.3144 9.08174C52.2366 8.85014 52.1082 8.63877 51.9385 8.46294C51.7632 8.2967 51.5599 8.16281 51.3379 8.06744C51.1403 7.9927 50.9311 7.95336 50.7198 7.95124H50.5679C50.2991 7.95124 50.0394 8.01424 49.7979 8.14864C49.5521 8.27375 49.3446 8.46287 49.1973 8.69604C48.821 9.2784 48.6277 9.96005 48.6422 10.6532V12.3766C48.6133 13.0747 48.8008 13.7646 49.1791 14.352C49.3317 14.576 49.5375 14.7559 49.7797 14.891C50.0037 15.0072 50.2627 15.0702 50.5322 15.0702H50.6932C50.899 15.0702 51.0964 15.0429 51.2931 14.9624C51.5171 14.8728 51.732 14.7468 51.8937 14.5851C52.0547 14.4059 52.1807 14.1903 52.2696 13.9481C52.3592 13.7052 52.3858 13.463 52.3774 13.2117L52.3592 12.9247H54.0434L54.0609 13.1851C54.0872 13.6383 54.017 14.0919 53.8549 14.516C53.6929 14.94 53.4427 15.3248 53.1208 15.6449C52.7708 15.9767 52.3858 16.2189 51.9294 16.3806C51.541 16.5308 51.1278 16.6068 50.7114 16.6046H50.4692C49.9862 16.6046 49.5382 16.4975 49.0986 16.3001C48.6388 16.0869 48.2321 15.7741 47.9079 15.3845C47.202 14.5174 46.8384 13.4216 46.8859 12.3045V10.7246C46.8272 9.60364 47.192 8.50153 47.9079 7.63694C48.2208 7.24214 48.6422 6.94534 49.0986 6.72974C49.5119 6.55221 49.9571 6.46075 50.4069 6.46094H50.7198C51.6067 6.46094 52.4488 6.79274 53.1117 7.37654C53.4641 7.6806 53.7323 8.07013 53.8908 8.50774H53.9174ZM61.8533 6.60374H54.4641V8.13954H57.3481V16.4975H59.0771V8.13954H61.8715L61.8533 6.60374ZM68.4459 6.60374L68.3745 6.73884L64.5854 13.0409V6.61424H62.8389V16.5164H64.4601L64.5315 16.3813L68.3297 10.061V16.4891H70.0762V6.60444H68.4368L68.4459 6.60374ZM73.2556 6.64924H72.9868V11.2818C73.0342 12.2764 72.9133 13.2718 72.6291 14.226C72.5661 14.4416 72.4499 14.6208 72.2707 14.7559C72.1051 14.8868 71.8994 14.9565 71.6883 14.9533H71.1598V16.4884H71.8857C72.3064 16.4884 72.7271 16.3806 73.1037 16.1559C73.52 15.9204 73.8543 15.5634 74.062 15.1325V15.1059C74.5717 13.8795 74.7983 12.554 74.7249 11.2279V8.13954H77.3849V16.4975H79.1314V6.60444H78.8626L73.2738 6.64924H73.2556ZM87.6945 13.4364C87.707 13.8441 87.637 14.25 87.4887 14.6299C87.3419 15.0135 87.1125 15.36 86.8167 15.6449C86.4885 15.9301 86.1124 16.155 85.7058 16.3092C85.3564 16.4261 84.9906 16.4866 84.6222 16.4884H80.8513V6.60444H82.5803V6.87394L82.5355 10.4376H84.6404C85.437 10.4376 86.2168 10.7246 86.8349 11.2363H86.8524L86.8706 11.2545C87.1569 11.5415 87.3809 11.8915 87.5335 12.2695C87.6747 12.6447 87.7358 13.0453 87.7127 13.4455L87.6945 13.4364ZM85.9655 13.4182C85.9854 13.0294 85.8503 12.6484 85.5896 12.3591C85.4347 12.222 85.2554 12.1151 85.0611 12.0441C84.8981 11.9825 84.725 11.9521 84.5508 11.9545H82.5082V14.9442H84.5508C84.73 14.9442 84.9001 14.9176 85.0611 14.8546C85.2585 14.7825 85.4195 14.6747 85.5714 14.5221C85.8402 14.2169 85.9746 13.8312 85.9655 13.4182ZM94.3494 6.60444V10.824H90.5519V6.60444H88.8054V16.4975H90.5519V12.3766H94.3494V16.4975H96.0959V6.60444H94.3494ZM105.304 6.60444V16.4975H107.059V6.60444H105.304ZM104.579 14.6033C104.422 14.9988 104.187 15.3589 103.889 15.6624C103.572 15.9666 103.193 16.1993 102.778 16.3449C102.423 16.477 102.046 16.5439 101.667 16.5423H97.8697V6.60444H99.6162V10.3123H101.721C102.08 10.3123 102.446 10.3753 102.787 10.4915C103.208 10.6441 103.585 10.8506 103.916 11.1565C104.22 11.4435 104.444 11.7935 104.588 12.1701C104.741 12.5488 104.811 12.9561 104.793 13.3643C104.793 13.7864 104.73 14.1903 104.588 14.6033H104.579ZM103.029 13.3552C103.047 12.9583 102.913 12.5693 102.653 12.2688C102.512 12.1146 102.337 11.9948 102.142 11.9188C101.985 11.8588 101.818 11.8284 101.65 11.8292H99.6071V14.9533H101.632C101.811 14.9533 101.981 14.9267 102.142 14.8637C102.339 14.7916 102.5 14.6663 102.653 14.5137C102.894 14.1812 103.047 13.7773 103.029 13.3552ZM110.544 14.9533V12.1435H114.584V10.6175H110.544V8.13044H115.13V6.60444H108.806V16.4975H115.21V14.9624H110.553V14.9442L110.544 14.9533ZM41.2523 48.8431H9.31201V6.80184H41.253L41.2523 48.8431ZM14.6859 12.1974V25.7445L28.6145 12.1974H14.6859ZM28.6145 43.3306L14.6859 29.7842V43.3306H28.6145ZM36.577 12.2604L20.652 27.827L36.577 43.3936V12.2604ZM56.1658 36.7233H59.7848L54.4193 28.3023L59.3907 20.9859H55.7717L51.8489 27.3958H50.5588V20.9859H47.5859V36.7058H50.5595V30.1251H52.2164L56.1665 36.7142L56.1658 36.7233ZM63.7979 21.0041H60.6003L65.8132 32.4232L65.5892 33.0161C65.4541 33.4425 65.2279 33.8345 64.9263 34.1648C64.5795 34.4342 64.1466 34.5683 63.7083 34.5421H62.8935V36.9571H63.9589C64.4092 36.9871 64.8609 36.928 65.2883 36.7831C65.7157 36.6382 66.1103 36.4105 66.4495 36.1129C67.1051 35.4353 67.6116 34.6279 67.9363 33.7427L72.9875 21.0132H69.8445L67.0494 28.8147L66.8072 27.9887L63.7888 21.0223L63.7979 21.0041ZM77.744 21.0041H74.3224L78.6757 28.7881L74.2146 36.7051H77.6726L80.5293 31.0316L83.3867 36.7058H86.907L82.3213 28.7874L86.7096 21.0041H83.2705L80.4936 26.5698L77.7622 21.0041H77.744ZM100.593 21.0041H97.6198V27.8179H91.5914V21.0041H88.6178V36.7233H91.5914V30.1881H97.6016V36.7233H100.575L100.593 21.0041ZM106.335 31.4985V20.9859H103.361V36.7058H106.335L112.273 26.1932V36.7058H115.247V20.995H112.273L106.335 31.5076V31.4985ZM76.8571 41.1221H71.1787V41.9481H73.5699V48.8249H74.5464V41.9481H76.9376L76.8662 41.1221H76.8571ZM58.6921 46.9937V41.1137H57.6981V48.8242H58.6921L62.2215 42.9442V48.8242H63.2155V41.1312H62.2215L58.6928 47.0021V46.993L58.6921 46.9937ZM48.5176 46.9937V41.1137H47.5236V48.8242H48.5176L52.0463 42.9442V48.8242H53.0403V41.1137H52.0463L48.5176 46.9937ZM89.2177 44.3267C89.1106 44.6144 88.9314 44.8657 88.7249 45.0813C88.2146 45.5034 87.5699 45.7183 86.907 45.6833H85.1066L85.1332 48.8522H84.1574V41.1403H86.8888C87.2206 41.1221 87.5517 41.1676 87.8471 41.2747C88.1607 41.3825 88.4477 41.5442 88.6892 41.7689C88.9132 41.9845 89.0833 42.2533 89.182 42.541C89.2982 42.828 89.343 43.1332 89.3346 43.4475C89.3612 43.7345 89.3164 44.0397 89.2177 44.3183V44.3267ZM88.3756 43.4384C88.3942 43.047 88.2593 42.6638 87.9997 42.3702C87.8568 42.2226 87.6823 42.1092 87.4894 42.0384C87.2984 41.9641 87.0932 41.9333 86.8888 41.9481H85.0884V44.8573H86.8888C87.0862 44.8748 87.292 44.8391 87.4894 44.7852C87.6861 44.7131 87.8471 44.606 87.9997 44.4709C88.1283 44.3346 88.2279 44.1737 88.2925 43.9977C88.3571 43.8218 88.3854 43.6347 88.3756 43.4475V43.4384ZM107.078 44.3274C106.97 44.6144 106.791 44.8664 106.585 45.0813C106.077 45.5038 105.428 45.7188 104.768 45.6833H102.967L102.994 48.8522H102.017V41.1312H104.749C105.075 41.1119 105.4 41.1579 105.708 41.2663C106.021 41.3734 106.308 41.5351 106.55 41.7598C106.774 41.9754 106.944 42.2442 107.043 42.5319C107.159 42.8189 107.204 43.1241 107.194 43.4384C107.239 43.7436 107.194 44.0404 107.078 44.3274ZM106.236 43.4384C106.255 43.047 106.12 42.6638 105.86 42.3702C105.717 42.2224 105.542 42.109 105.349 42.0384C105.158 41.9642 104.954 41.9333 104.749 41.9481H102.949V44.8573H104.749C104.946 44.8748 105.153 44.8391 105.349 44.7852C105.547 44.7131 105.708 44.606 105.86 44.4709C105.989 44.3346 106.088 44.1737 106.153 43.9977C106.218 43.8218 106.246 43.6347 106.236 43.4475V43.4384ZM95.3175 46.5268C95.3357 46.832 95.2727 47.1463 95.1656 47.4333C95.0487 47.7203 94.8786 47.9723 94.6728 48.2054C94.4319 48.4301 94.1443 48.5988 93.8307 48.6996C93.5229 48.8056 93.1975 48.8513 92.8724 48.834H90.1403V41.1221H91.1168L91.0902 44.2917H92.8899C93.5508 44.2516 94.2018 44.4669 94.7085 44.893C94.9143 45.1086 95.1026 45.3599 95.2013 45.6469C95.2909 45.9164 95.3357 46.2216 95.3175 46.5177V46.5268ZM94.3235 46.5268C94.333 46.3397 94.3046 46.1525 94.2399 45.9766C94.1751 45.8007 94.0755 45.6398 93.9469 45.5034C93.7987 45.3667 93.6254 45.26 93.4366 45.1891C93.2445 45.1208 93.0396 45.0961 92.8367 45.117H91.0363V48.0262H92.8367C93.0425 48.0437 93.2392 48.008 93.4366 47.9359C93.634 47.8645 93.795 47.7567 93.9469 47.6041C94.2066 47.2989 94.341 46.9125 94.3235 46.5359V46.5268ZM70.2561 41.1228H69.2621V44.606H65.6879V41.1221H64.6939V48.834H65.6879V45.4404H69.2621V48.834H70.2561V41.1228ZM113.303 47.3976C113.186 47.7028 113.016 47.9716 112.792 48.1788C112.551 48.4028 112.265 48.5827 111.951 48.6898C111.637 48.7993 111.306 48.8512 110.974 48.8431H108.198V41.1221H109.192V44.1657H110.984C111.315 44.1475 111.646 44.1923 111.959 44.3001C112.273 44.4079 112.56 44.5871 112.801 44.7943C113.025 45.0099 113.196 45.2787 113.294 45.5664C113.41 45.8534 113.455 46.1586 113.447 46.4729C113.473 46.7872 113.42 47.1099 113.312 47.3885L113.303 47.3976ZM112.443 46.4638C112.46 46.0809 112.325 45.7068 112.067 45.4229C111.926 45.2688 111.751 45.1491 111.557 45.0729C111.366 44.9993 111.161 44.9685 110.956 44.9826H109.165V47.9996H110.956C111.161 48.0158 111.366 47.9849 111.557 47.9093C111.754 47.8372 111.915 47.7119 112.049 47.5593C112.312 47.2523 112.452 46.8589 112.443 46.4547V46.4638ZM115.31 41.1228H114.306V48.834H115.31V41.1228ZM82.4109 44.4443H79.0789V41.9572H82.8498V41.1312H78.0842V48.8431H82.9212V48.0171H79.0789V45.2612H82.4109V44.4443ZM100.396 44.4443H97.064V41.9572H100.835V41.1312H96.07V48.8431H100.907V48.0171H97.064V45.2612H100.396V44.4443Z" fill="#808588"/>
<path d="M36.5773 12.2598L20.6523 27.8271L36.5773 43.3937V12.2598Z" fill="white"/>
<path d="M14.686 12.1973V25.7444L28.6139 12.1973H14.686Z" fill="white"/>
<path d="M28.6139 43.3316L14.686 29.7852V43.3316H28.6139Z" fill="white"/>
</svg>
