<svg width="165" height="165" viewBox="0 0 165 165" fill="none" xmlns="http://www.w3.org/2000/svg">
<g clip-path="url(#clip0_1935_58679)">
<path opacity="0.2" d="M161.7 3.3V161.7H3.3V3.3H161.7ZM165 0H0V165H165V0Z" fill="white"/>
<path d="M82.4998 36.894L120.648 57.09V107.91L82.4998 128.106L44.3518 107.91V57.09L82.4998 36.894ZM82.4998 33.132L41.0518 55.044V109.824L82.4998 131.736L123.948 109.824V55.044L82.4998 33.132Z" fill="white"/>
<path d="M68.3758 103.356C65.6038 103.356 63.2278 102.762 61.1158 101.64C59.0038 100.518 57.3538 98.934 56.1658 96.888C54.9778 94.842 54.3838 92.466 54.3838 89.694V67.188H58.8058V89.364C58.8058 91.014 59.0698 92.532 59.6638 93.72C60.2578 94.908 60.9838 95.964 61.9078 96.822C62.8318 97.614 63.8878 98.274 65.0098 98.67C66.1318 99.066 67.2538 99.264 68.3758 99.264C69.4978 99.264 70.6198 99.066 71.8078 98.67C72.9958 98.274 73.9858 97.68 74.9098 96.822C75.8338 96.03 76.5598 94.974 77.1538 93.72C77.6818 92.466 78.0118 91.014 78.0118 89.364V67.188H82.4338V89.76C82.4338 92.532 81.8398 94.908 80.6518 96.954C79.4638 99 77.8138 100.584 75.7018 101.706C73.5898 102.828 71.1478 103.422 68.4418 103.422L68.3758 103.356Z" fill="white"/>
<path d="M96.4924 102.63L86.8564 76.032H91.2784L98.7364 97.086L106.194 76.032H110.682L101.046 102.63H96.5584H96.4924Z" fill="white"/>
<path d="M103.158 70.1579H100.122V67.1219H97.3505V70.1579H94.3145V72.9299H97.3505V75.9659H100.122V72.9299H103.158V70.1579Z" fill="white"/>
</g>
<defs>
<clipPath id="clip0_1935_58679">
<rect width="165" height="165" fill="white"/>
</clipPath>
</defs>
</svg>
