<svg width="165" height="165" viewBox="0 0 165 165" fill="none" xmlns="http://www.w3.org/2000/svg">
<g clip-path="url(#clip0_1935_58700)">
<path opacity="0.2" d="M0 0V165H165V0H0ZM161.7 161.7H3.3V3.3H161.7V161.7Z" fill="white"/>
<path d="M78.3627 87.6277C79.7081 87.9831 81.1043 88.1862 82.5004 88.1862C83.8966 88.1862 85.2927 88.0085 86.6381 87.6277C90.522 86.5616 93.6697 83.9216 95.5227 80.19C97.5281 76.1539 97.7058 71.4069 96.0304 67.2185L84.0235 37.2139H80.952L68.945 67.2185C67.2697 71.4069 67.4474 76.1539 69.4527 80.19C71.3058 83.9216 74.4535 86.5616 78.3374 87.6277H78.3627ZM72.0166 68.4369L82.475 42.2654L92.9335 68.4369C94.2535 71.7623 94.1266 75.5193 92.5274 78.7177C91.1058 81.5862 88.6943 83.6423 85.7243 84.4546C83.592 85.0385 81.3074 85.0385 79.2004 84.4546C76.2304 83.6423 73.8189 81.6116 72.3974 78.7177C70.7981 75.5193 70.6712 71.7623 71.9912 68.4369H72.0166Z" fill="white"/>
<path d="M114.84 87.6277C116.186 87.9831 117.582 88.1862 118.978 88.1862C120.374 88.1862 121.77 88.0085 123.116 87.6277C127 86.5616 130.147 83.9216 132 80.19C134.006 76.1539 134.183 71.4069 132.508 67.2185L120.501 37.2139H117.43L105.423 67.2185C103.747 71.4069 103.925 76.1539 105.93 80.19C107.783 83.9216 110.931 86.5616 114.815 87.6277H114.84ZM108.494 68.4369L118.953 42.2654L129.411 68.4369C130.731 71.7623 130.604 75.5193 129.005 78.7177C127.583 81.5862 125.172 83.6169 122.202 84.4292C120.07 85.0131 117.785 85.0131 115.678 84.4292C112.708 83.6169 110.296 81.5862 108.875 78.6923C107.276 75.4939 107.149 71.7369 108.469 68.4116L108.494 68.4369Z" fill="white"/>
<path d="M41.8842 87.6277C43.2296 87.9831 44.6258 88.1862 46.0219 88.1862C47.4181 88.1862 48.8142 88.0085 50.1596 87.6277C54.0435 86.5616 57.1911 83.9216 59.0442 80.19C61.0496 76.1539 61.2273 71.4069 59.5519 67.2185L47.545 37.2139H44.4735L32.4665 67.2185C30.7911 71.4069 30.9688 76.1539 32.9742 80.19C34.8273 83.9216 37.975 86.5616 41.8588 87.6277H41.8842Z" fill="white"/>
<path d="M54.2215 105.042C53.4854 103.366 52.2923 102.097 50.6169 101.259C48.9415 100.422 46.9362 100.015 44.6008 100.015C41.6815 100.015 39.3462 100.65 37.5692 101.945C35.7923 103.239 34.5992 104.991 33.9646 107.25L38.0008 108.468C38.4831 106.869 39.2954 105.727 40.4631 105.016C41.6308 104.305 43.0015 103.95 44.55 103.95C46.9108 103.95 48.5608 104.508 49.5254 105.6C50.3885 106.565 50.7692 108.088 50.82 110.017C49.9062 110.144 49.0431 110.271 48.0531 110.398C46.5046 110.601 44.9562 110.829 43.4331 111.083C41.91 111.337 40.5392 111.616 39.3208 111.946C38.0262 112.327 36.9092 112.86 35.97 113.52C35.0308 114.18 34.2946 115.018 33.7869 116.008C33.2538 116.998 33 118.165 33 119.511C33 120.856 33.33 122.176 33.99 123.318C34.65 124.461 35.6146 125.425 36.9346 126.111C38.2292 126.822 39.8538 127.177 41.7577 127.177C44.2454 127.177 46.3777 126.644 48.1038 125.578C49.3985 124.791 50.4138 123.598 51.2769 122.252V126.466H55.0592V110.55C55.0592 109.535 55.0085 108.57 54.9069 107.631C54.8054 106.692 54.5769 105.828 54.2215 105.042ZM50.7946 115.043C50.7946 116.033 50.6423 116.896 50.4138 117.708C50.2108 118.775 49.7538 119.765 49.0685 120.653C48.3831 121.542 47.4692 122.278 46.3523 122.811C45.2354 123.369 43.9154 123.623 42.3669 123.623C41.1485 123.623 40.1585 123.42 39.3969 123.014C38.6354 122.608 38.0769 122.1 37.7215 121.465C37.3662 120.831 37.1885 120.171 37.1885 119.46C37.1885 118.648 37.3662 117.962 37.7469 117.429C38.1277 116.871 38.61 116.439 39.2192 116.084C39.8285 115.728 40.4885 115.449 41.1992 115.221C42.1638 114.942 43.23 114.713 44.4231 114.51C45.6162 114.307 46.8854 114.129 48.2054 113.952C49.0431 113.85 49.9315 113.723 50.7946 113.596C50.7946 114.028 50.7946 114.383 50.7946 115.018V115.043Z" fill="white"/>
<path d="M61.989 121.338C62.4205 122.405 63.0551 123.369 63.8167 124.258C64.6036 125.121 65.5682 125.831 66.7613 126.365C67.9543 126.898 69.3759 127.151 71.0259 127.151C73.2343 127.151 75.1636 126.669 76.7882 125.705C77.9305 125.019 78.819 124.08 79.6059 122.988V126.491H83.3882V100.751H79.1236V114.307C79.1236 115.779 78.9713 117.074 78.6159 118.191C78.2605 119.308 77.8036 120.221 77.169 120.958C76.5597 121.668 75.7982 122.227 74.9351 122.582C74.0467 122.963 73.082 123.141 72.0159 123.141C70.6705 123.141 69.5282 122.887 68.6397 122.354C67.7513 121.821 67.0151 121.11 66.5074 120.196C65.9743 119.282 65.5936 118.267 65.3651 117.15C65.1367 116.033 65.0351 114.865 65.0351 113.647V100.751H60.7451V114.992C60.7451 115.957 60.8467 116.998 61.0243 118.115C61.202 119.231 61.532 120.323 61.9636 121.389L61.989 121.338Z" fill="white"/>
<path d="M96.6648 93.5676H92.4255V100.726H87.2217V104.229H92.4255V116.744C92.4255 118.064 92.4255 119.231 92.4763 120.298C92.5271 121.338 92.8063 122.354 93.2886 123.395C93.8978 124.562 94.7863 125.4 95.9286 125.958C97.0963 126.517 98.4163 126.796 99.914 126.872C101.386 126.923 102.909 126.796 104.432 126.491V122.836C102.656 123.115 101.158 123.166 99.914 122.988C98.6701 122.811 97.7563 122.227 97.1724 121.211C96.8678 120.678 96.7155 120.018 96.6901 119.282C96.6901 118.546 96.6394 117.632 96.6394 116.591V104.28H104.407V100.777H96.6394V93.6184L96.6648 93.5676Z" fill="white"/>
<path d="M126.238 101.716C124.385 100.574 122.151 99.99 119.587 99.99C117.023 99.99 114.891 100.548 113.038 101.691C111.185 102.833 109.738 104.407 108.722 106.438C107.707 108.468 107.199 110.829 107.199 113.545C107.199 116.262 107.707 118.546 108.697 120.602C109.687 122.658 111.108 124.258 112.962 125.425C114.815 126.593 117.023 127.152 119.562 127.152C122.1 127.152 124.334 126.568 126.187 125.425C128.04 124.283 129.487 122.684 130.477 120.628C131.467 118.597 131.975 116.211 131.975 113.545C131.975 110.88 131.467 108.545 130.477 106.514C129.487 104.458 128.065 102.884 126.212 101.716H126.238ZM125.552 120.475C124.258 122.252 122.278 123.141 119.587 123.141C116.896 123.141 115.043 122.278 113.698 120.526C112.352 118.775 111.692 116.465 111.692 113.571C111.692 111.692 111.972 110.042 112.555 108.621C113.139 107.199 114.002 106.082 115.145 105.27C116.312 104.458 117.785 104.052 119.587 104.052C122.227 104.052 124.207 104.915 125.527 106.641C126.847 108.367 127.507 110.677 127.507 113.596C127.507 116.515 126.847 118.724 125.552 120.501V120.475Z" fill="white"/>
</g>
<defs>
<clipPath id="clip0_1935_58700">
<rect width="165" height="165" fill="white"/>
</clipPath>
</defs>
</svg>
