<svg width="165" height="165" viewBox="0 0 165 165" fill="none" xmlns="http://www.w3.org/2000/svg">
<g clip-path="url(#clip0_1935_58693)">
<path opacity="0.2" d="M0 0V165H165V0H0ZM161.7 161.7H3.3V3.3H161.7V161.7Z" fill="white"/>
<path d="M43.5603 74.3821C40.9203 76.9561 39.9963 80.8501 41.3163 84.2821L51.0183 109.692C53.1963 115.5 58.1463 119.988 64.1523 121.77L96.9543 131.208C98.0103 131.538 99.0663 131.67 100.122 131.67C104.082 131.67 107.844 129.558 109.89 125.928L118.008 111.408L124.014 90.6181C125.334 86.0641 122.694 81.3121 118.14 79.9921C116.292 79.4641 114.378 79.7281 112.596 80.4541L112.728 79.9921C114.048 75.4381 111.408 70.6861 106.854 69.3661C104.94 68.8381 103.026 69.1021 101.31 69.8281V69.4981C102.696 65.0101 100.056 60.2581 95.5023 58.9381C93.5883 58.4101 91.6743 58.6741 89.9583 59.4001L94.2483 44.4181C94.9083 42.2401 94.6443 39.9301 93.5223 37.8841C92.4003 35.9041 90.5523 34.4521 88.3743 33.8581C86.1303 33.1981 83.8863 33.4621 81.9063 34.5841C79.9263 35.7061 78.4743 37.4881 77.8803 39.6661L66.7923 78.1441L69.9603 79.0681L81.0483 40.5901C81.4443 39.2041 82.3023 38.1481 83.5563 37.4221C84.7443 36.7621 86.1963 36.5641 87.5163 37.0261C88.9023 37.4221 90.0243 38.2801 90.6843 39.5341C91.3443 40.7221 91.5423 42.1741 91.1463 43.4941L77.8803 89.6281L81.0483 90.5521L88.1763 65.7361C88.9683 62.9641 91.8723 61.3801 94.6443 62.1721C97.4163 62.9641 99.0663 65.8681 98.2743 68.6401L96.3603 75.3061L91.1463 93.4561L94.3143 94.3801L99.5283 76.2301C100.32 73.3921 103.224 71.8081 105.996 72.6001C108.768 73.3921 110.418 76.3621 109.626 79.1341L107.646 85.9981L104.346 97.3501L107.514 98.2741L110.814 86.9221C111.21 85.5361 112.068 84.4141 113.322 83.7541C114.51 83.0941 115.962 82.8961 117.282 83.2921C120.054 84.0841 121.704 87.0541 120.912 89.8261L115.038 110.286L107.052 124.476C105.27 127.71 101.442 129.228 97.9443 128.238L65.1423 118.8C60.1263 117.348 56.0343 113.586 54.1863 108.768L44.4843 83.3581C43.6263 81.1801 44.2203 78.6721 45.9363 77.0221C47.1903 75.8341 48.8403 75.2401 50.4903 75.4381C52.2063 75.5701 53.7243 76.4941 54.6483 77.7481L63.4923 91.8061L66.2643 90.0241L57.3543 75.9001C55.7703 73.7881 53.3943 72.4021 50.7543 72.1381C48.1143 71.8741 45.5403 72.7981 43.6263 74.6461L43.5603 74.3821Z" fill="white"/>
<path d="M114.312 56.2321L127.38 48.1141V45.2761L114.312 37.2241L112.596 40.0621L123.354 46.7281L112.596 53.3941L114.312 56.2321Z" fill="white"/>
<path d="M50.6881 56.2321L52.4041 53.3941L41.6461 46.7941L52.4041 40.0621L50.6881 37.2241L37.6201 45.3421V48.1801L50.6881 56.2321Z" fill="white"/>
</g>
<defs>
<clipPath id="clip0_1935_58693">
<rect width="165" height="165" fill="white"/>
</clipPath>
</defs>
</svg>
